<?xml version="1.0" encoding="UTF-8"?>
<svg id="Layer_2" data-name="Layer 2" xmlns="http://www.w3.org/2000/svg" viewBox="0 0 71.04 72.72">
  <defs>
    
  </defs>
  <g id="Layer_1-2" data-name="Layer 1">
    <g>
      <g>
        <path class="cls-2" d="M4.25,70.93c-.72,0-1.4-.31-1.87-.86-.46-.54-.67-1.25-.56-1.97.37-2.37.91-4.78,1.64-7.38,1.04-3.7,2.42-7.33,4.09-10.8,2.18-4.54,4.86-8.82,7.96-12.72.64-.8,1.29-1.58,1.95-2.35,4.27-4.96,9.12-9.2,14.45-12.64-1.3-.32-2.58-.73-3.85-1.21-3.58-1.35-6.98-3.4-9.83-5.91-2.03-1.79-3.8-3.73-5.25-5.78-.45-.64-.61-1.44-.42-2.2.19-.76.69-1.4,1.39-1.75,2.42-1.23,5.03-2.16,7.75-2.77,1.14-.26,2.32-.45,3.52-.59,1.22-.14,2.47-.21,3.71-.21,1.95,0,3.9.17,5.82.52,1.6.29,3.17.69,4.65,1.19,1.67.55,3.34,1.27,4.94,2.12.43.22.87.47,1.3.72,3.1.12,6.16.67,9.12,1.65,2.62.86,5.12,2.05,7.45,3.54.36.23.71.46,1.05.7,1.15.79,2.27,1.68,3.34,2.65,1.61,1.46,1.9,3.92.67,5.72-.9,1.32-1.92,2.61-2.87,3.65-1.39,1.51-2.75,2.77-4.16,3.87-1.02.79-2.03,1.46-3.01,2,.22.14.43.28.63.41,4.71,3.18,8.12,6.76,11.06,11.6.46.76.47,1.7.04,2.47-.43.77-1.25,1.25-2.12,1.25-.13,0-.26,0-.39-.03h-.12l-.23-.08-.49-.13h0c-3.54-1.01-6.83-1.66-10.02-1.99-1.83-.18-3.49-.27-5.05-.27-.26,0-.51,0-.77,0-6.84.12-13.51,1.98-20.39,5.69-6.22,3.36-11.8,7.65-16.59,12.75-1.32,1.4-2.37,2.59-3.32,3.75-1.16,1.41-2.21,2.91-3.17,4.33-.46.67-1.21,1.07-2.01,1.07Z"></path>
        <path class="cls-1" d="M28.92,3.59c1.84,0,3.69.16,5.5.49,1.5.27,2.97.64,4.39,1.13,1.62.53,3.18,1.2,4.68,2,.55.29,1.09.59,1.62.91,3.08.07,6.14.61,9.07,1.57,2.48.82,4.85,1.94,7.05,3.34.34.22.67.44.99.66,1.11.76,2.15,1.6,3.15,2.5.96.87,1.12,2.31.39,3.37-.88,1.29-1.85,2.51-2.71,3.44-1.22,1.32-2.52,2.57-3.94,3.67-1.21.94-2.46,1.74-3.67,2.3-.4.18-.84.53-.84,1.01-.03.36.13.73.53.95.58.33,1.15.68,1.7,1.06,4.45,3.01,7.73,6.43,10.53,11.05.27.45-.07.99-.55.99-.06,0-.12,0-.19-.03,0,0,0,0-.02,0-.03,0-.05-.02-.07-.02-3.53-1.02-7.13-1.79-10.79-2.17-1.74-.17-3.49-.28-5.24-.28-.27,0-.53,0-.8,0-7.56.13-14.59,2.34-21.21,5.91-6.33,3.42-12.12,7.85-17.04,13.1-1.17,1.25-2.31,2.52-3.4,3.83-1.18,1.43-2.23,2.93-3.27,4.46-.13.2-.33.29-.52.29-.37,0-.72-.31-.66-.76.38-2.42.93-4.8,1.59-7.16,1.02-3.61,2.35-7.13,3.98-10.51,2.11-4.4,4.71-8.56,7.75-12.38.62-.78,1.25-1.54,1.9-2.29,4.76-5.52,10.3-10.2,16.61-13.86,0,0,.01,0,.02,0,.49-.28.35-1.02-.21-1.1-2.23-.34-4.43-.93-6.53-1.73-3.39-1.28-6.56-3.18-9.28-5.58-1.84-1.62-3.55-3.46-4.98-5.47-.32-.45-.16-1.06.32-1.31,2.27-1.15,4.72-2.04,7.32-2.62,1.11-.25,2.22-.43,3.33-.56,1.16-.13,2.33-.2,3.5-.2M28.92,0c-1.3,0-2.62.07-3.91.22-1.26.14-2.51.35-3.71.62-2.86.64-5.6,1.62-8.16,2.92-1.16.59-2.01,1.66-2.32,2.92-.31,1.27-.06,2.6.7,3.67,1.54,2.16,3.4,4.21,5.53,6.09,3.01,2.65,6.6,4.81,10.38,6.24.13.05.27.1.41.15-4.26,3.11-8.19,6.74-11.73,10.85-.63.73-1.28,1.51-1.99,2.39-3.19,4.01-5.94,8.41-8.18,13.06-1.72,3.57-3.13,7.3-4.2,11.09-.75,2.67-1.3,5.14-1.68,7.57-.19,1.25.17,2.49.97,3.43.81.94,1.99,1.48,3.23,1.48,1.4,0,2.71-.7,3.5-1.87.93-1.38,1.95-2.84,3.06-4.2.92-1.12,1.95-2.28,3.24-3.66,4.65-4.96,10.08-9.13,16.13-12.39,6.62-3.57,13.02-5.36,19.57-5.48.25,0,.49,0,.74,0,1.5,0,3.1.09,4.89.26,3.2.34,6.52,1.01,10.13,2.05l.47.16h.28c.18.03.36.04.54.04,1.52,0,2.94-.83,3.69-2.16.75-1.33.73-2.97-.06-4.28-2.7-4.45-5.9-7.99-9.98-11.03.29-.21.57-.42.86-.64,1.49-1.16,2.93-2.49,4.38-4.07,1.01-1.1,2.09-2.46,3.04-3.85,1.74-2.54,1.33-6.01-.95-8.06-1.13-1.02-2.31-1.96-3.52-2.79-.36-.25-.72-.49-1.09-.73-2.46-1.57-5.1-2.82-7.86-3.73-2.97-.98-6.05-1.56-9.16-1.72-.34-.19-.67-.37-1-.55-1.66-.88-3.42-1.63-5.21-2.22-1.54-.52-3.19-.95-4.88-1.25-2.02-.36-4.08-.55-6.13-.55h0Z"></path>
      </g>
      <path class="cls-1" d="M53.1,14.58c0-1.79-1.46-3.25-3.25-3.25s-3.25,1.46-3.25,3.25c0,.84.32,1.61.85,2.18,1.83-.61,3.69-1.13,5.59-1.58.04-.2.06-.4.06-.61"></path>
    </g>
  </g>
</svg>