<svg width="167" height="98" viewBox="0 0 167 98" fill="none" xmlns="http://www.w3.org/2000/svg">
<path d="M163.66 86.3395C161.998 86.3395 160.652 84.9936 160.652 83.3311C160.652 40.6978 125.969 6.01445 83.3311 6.01445C40.702 6.01445 6.01446 40.6978 6.01446 83.3311C6.01446 84.9936 4.66862 86.3395 3.00612 86.3395C1.34362 86.3395 0.00195312 84.9936 0.00195312 83.3311C0.00195312 37.3811 37.3853 0.00195312 83.3311 0.00195312C129.281 0.00195312 166.669 37.3811 166.669 83.3311C166.669 84.9936 165.323 86.3395 163.66 86.3395Z" fill="black"/>
<path d="M83.3326 23.3792C81.6701 23.3792 80.3242 22.0333 80.3242 20.3708V3.00833C80.3242 1.34583 81.6701 0 83.3326 0C84.9951 0 86.3409 1.34583 86.3409 3.00833V20.3708C86.3409 22.0333 84.9951 23.3792 83.3326 23.3792Z" fill="black"/>
<path d="M38.8128 41.818C38.0419 41.818 37.2753 41.5221 36.6878 40.9388L24.4086 28.6596C23.2336 27.4846 23.2336 25.5805 24.4086 24.4055C25.5836 23.2346 27.4836 23.2346 28.6586 24.4055L40.9378 36.6846C42.1128 37.8596 42.1128 39.7638 40.9378 40.9388C40.3503 41.5221 39.5836 41.818 38.8128 41.818Z" fill="black"/>
<path d="M20.3708 86.3406H3.00833C1.34583 86.3406 0 84.9948 0 83.3323C0 81.674 1.34583 80.3281 3.00833 80.3281H20.3708C22.0333 80.3281 23.3792 81.674 23.3792 83.3323C23.3792 84.9948 22.0333 86.3406 20.3708 86.3406Z" fill="black"/>
<path d="M163.66 86.3406H146.293C144.631 86.3406 143.285 84.9948 143.285 83.3323C143.285 81.674 144.631 80.3281 146.293 80.3281H163.66C165.323 80.3281 166.668 81.674 166.668 83.3323C166.668 84.9948 165.323 86.3406 163.66 86.3406Z" fill="black"/>
<path d="M127.852 41.818C127.085 41.818 126.314 41.5221 125.727 40.9388C124.552 39.7638 124.552 37.8596 125.727 36.6846L138.006 24.4055C139.181 23.2346 141.085 23.2346 142.256 24.4055C143.431 25.5805 143.431 27.4846 142.256 28.6596L129.977 40.9388C129.389 41.5221 128.623 41.818 127.852 41.818Z" fill="black"/>
<path d="M83.3333 79.5948C80.125 79.5948 77.5125 82.2031 77.5125 85.4115C77.5125 88.6198 80.125 91.2281 83.3333 91.2281C86.5417 91.2281 89.15 88.6198 89.15 85.4115C89.15 82.2031 86.5417 79.5948 83.3333 79.5948ZM83.3333 97.2448C76.8083 97.2448 71.5 91.9365 71.5 85.4115C71.5 78.8865 76.8083 73.5781 83.3333 73.5781C89.8583 73.5781 95.1667 78.8865 95.1667 85.4115C95.1667 91.9365 89.8583 97.2448 83.3333 97.2448Z" fill="black"/>
<path d="M91.6026 85.3719C90.3401 85.3719 89.1651 84.5719 88.7484 83.3052C88.2276 81.7302 89.0818 80.0302 90.6568 79.5094L129.886 66.5344C131.469 66.0052 133.165 66.8719 133.686 68.4469C134.207 70.0219 133.353 71.7261 131.778 72.2469L92.5443 85.2177C92.2318 85.3219 91.9151 85.3719 91.6026 85.3719Z" fill="black"/>
<path d="M61.3757 95.3657C60.1132 95.3657 58.9382 94.5657 58.5215 93.299C57.9965 91.724 58.8548 90.024 60.434 89.5032L73.9257 85.0407C75.4965 84.5157 77.2007 85.3782 77.7215 86.949C78.2465 88.5282 77.3882 90.2282 75.809 90.749L62.3173 95.2115C62.0048 95.3157 61.6882 95.3657 61.3757 95.3657Z" fill="black"/>
</svg>
