<svg width="133" height="167" viewBox="0 0 133 167" fill="none" xmlns="http://www.w3.org/2000/svg">
<path d="M7.96723 160.179H124.726C119.238 146.25 101.134 102.521 81.6006 79.9708C81.0881 79.3792 80.8047 78.625 80.8047 77.8458V6.4875H51.8839V77.8458C51.8839 78.625 51.6006 79.3792 51.0881 79.9708C31.5464 102.533 13.4506 146.254 7.96723 160.179ZM129.451 166.667H3.24223C2.17973 166.667 1.18806 166.146 0.579732 165.275C-0.0244351 164.404 -0.166102 163.292 0.200565 162.296C1.07557 159.938 21.6422 104.763 45.3964 76.65V3.24167C45.3964 1.45417 46.8506 0 48.6422 0H84.0506C85.8422 0 87.2922 1.45417 87.2922 3.24167V76.65C111.051 104.763 131.617 159.938 132.492 162.296C132.859 163.292 132.717 164.404 132.113 165.275C131.505 166.146 130.509 166.667 129.451 166.667Z" fill="black"/>
<path d="M64.1382 154.64H48.6423C46.8507 154.64 45.3965 153.19 45.3965 151.398C45.3965 149.606 46.8507 148.156 48.6423 148.156H64.1382C65.9298 148.156 67.3798 149.606 67.3798 151.398C67.3798 153.19 65.9298 154.64 64.1382 154.64Z" fill="black"/>
<path d="M64.1382 129.675H48.6423C46.8507 129.675 45.3965 128.221 45.3965 126.429C45.3965 124.642 46.8507 123.188 48.6423 123.188H64.1382C65.9298 123.188 67.3798 124.642 67.3798 126.429C67.3798 128.221 65.9298 129.675 64.1382 129.675Z" fill="black"/>
<path d="M64.1382 117.191H48.6423C46.8507 117.191 45.3965 115.741 45.3965 113.949C45.3965 112.157 46.8507 110.703 48.6423 110.703H64.1382C65.9298 110.703 67.3798 112.157 67.3798 113.949C67.3798 115.741 65.9298 117.191 64.1382 117.191Z" fill="black"/>
<path d="M64.1382 104.71H48.6423C46.8507 104.71 45.3965 103.256 45.3965 101.468C45.3965 99.6768 46.8507 98.2227 48.6423 98.2227H64.1382C65.9298 98.2227 67.3798 99.6768 67.3798 101.468C67.3798 103.256 65.9298 104.71 64.1382 104.71Z" fill="black"/>
<path d="M117.217 143.127C108.354 143.127 103.867 141.481 99.5294 139.886C95.5461 138.427 91.7836 137.044 84.0711 137.044C76.3586 137.044 72.5961 138.427 68.6128 139.886C64.2753 141.481 59.7878 143.127 50.9253 143.127C42.0669 143.127 37.5836 141.481 33.2419 139.886C29.2628 138.427 25.5086 137.044 17.8044 137.044C16.0128 137.044 14.5586 135.594 14.5586 133.802C14.5586 132.011 16.0128 130.561 17.8044 130.561C26.6586 130.561 31.1419 132.206 35.4794 133.798C39.4628 135.261 43.2211 136.64 50.9253 136.64C58.6336 136.64 62.4003 135.261 66.3794 133.798C70.7211 132.206 75.2086 130.561 84.0711 130.561C92.9336 130.561 97.4211 132.206 101.763 133.798C105.742 135.261 109.509 136.64 117.217 136.64C119.009 136.64 120.459 138.094 120.459 139.886C120.459 141.673 119.009 143.127 117.217 143.127Z" fill="black"/>
</svg>
