<svg width="1609" height="2527" viewBox="0 0 1609 2527" fill="none" xmlns="http://www.w3.org/2000/svg">
<g opacity="0.15">
<path d="M631.255 883.248C618.426 869.16 610.546 850.485 610.546 829.935C610.546 786.148 646.038 750.644 689.838 750.644C733.621 750.644 769.138 786.148 769.138 829.935C769.138 834.998 768.613 839.94 767.705 844.74C721.355 855.644 675.822 868.452 631.255 883.248ZM-399.841 1967.76C-415.987 2025.16 -429.383 2083.42 -438.624 2142.35C-441.162 2159.16 -419.387 2168.04 -409.87 2153.97C-384.566 2116.58 -358.904 2079.94 -330.199 2045.04C-303.733 2012.85 -275.829 1981.87 -247.329 1951.48C-127.158 1823.39 14.0381 1715.27 168.551 1631.87C330.051 1544.79 501.68 1491 686.101 1487.72C735.359 1486.77 784.496 1489.52 833.538 1494.39C922.851 1503.79 1010.57 1522.6 1096.81 1547.44C1097.44 1547.54 1097.97 1547.75 1098.6 1547.96C1098.82 1547.96 1098.93 1547.96 1099.03 1548.07C1112.98 1552.08 1124.39 1536.86 1116.99 1524.61C1048.62 1411.94 968.717 1328.46 860.067 1254.99C846.538 1245.8 832.701 1237.35 818.53 1229.21C808.809 1223.71 805.001 1214.73 805.638 1205.95C805.651 1194.23 816.484 1185.78 826.142 1181.33C855.73 1167.67 886.101 1148.31 915.738 1125.31C950.392 1098.4 982.255 1068.04 1011.95 1035.79C1033 1012.91 1056.59 983.26 1078.15 951.731C1095.94 925.731 1092 890.598 1068.63 869.46C1044.32 847.469 1018.83 827.123 991.759 808.473C983.813 802.989 975.792 797.577 967.559 792.298C913.967 758.16 856.163 730.677 795.592 710.71C724.205 687.152 649.451 674.156 574.288 672.348C561.288 664.519 548.076 657.014 534.655 650.035C498.088 630.594 459.938 614.219 420.521 601.219C385.751 589.381 349.909 580.285 313.351 573.735C240.921 560.773 166.73 558.319 93.6172 566.652C66.563 569.714 39.5131 574.156 12.3506 580.285C-51.1036 594.469 -110.954 616.052 -166.279 644.194C-178.166 650.239 -181.866 665.248 -174.145 676.106C-139.224 725.219 -97.6911 770.035 -52.7078 809.644C13.6672 868.056 91.0298 914.444 173.709 945.744C225.038 965.185 278.626 979.523 333.151 987.881C346.784 989.973 350.267 1007.82 338.346 1014.76C338.226 1014.84 338.096 1014.91 337.976 1014.98C184.088 1104.29 48.813 1218.53 -67.3453 1353.28C-83.1953 1371.57 -98.6245 1390.28 -113.741 1409.19C-187.824 1502.4 -251.233 1603.98 -302.812 1711.25C-342.445 1793.69 -374.991 1879.62 -399.841 1967.76Z" fill="white"/>
<path d="M692.355 0C664.526 0 624.375 10.5833 591.146 60.9167C566.551 98.1542 550.234 137.108 534.446 174.762C527.826 190.579 521.567 205.517 514.826 220.058C509.071 232.463 503.934 243.962 499.038 254.962C484.913 286.637 473.767 311.642 454.509 342.383C451.109 347.842 447.746 353.325 444.384 358.804C436.134 372.259 428.355 384.958 420.109 396.846C415.201 403.908 410.58 410.025 405.959 415.554C394.646 429.129 377.634 436.908 359.296 436.908C355.251 436.908 351.146 436.529 347.138 435.763C292.026 425.325 235.634 420.033 179.542 420.033C113.109 420.033 46.4464 427.417 -18.5495 441.975C-89.2953 457.775 -157.729 481.858 -221.97 513.592C-233.537 519.3 -254.912 530.733 -255.812 531.221L-256.087 531.367C-291.062 550.554 -316.379 583.533 -325.825 621.967C-335.27 660.417 -328.1 701.367 -306.158 734.321L-305.92 734.692C-282.483 770.113 -255.537 804.754 -225.733 837.792L-223.599 840.1C-214.633 849.975 -206.125 858.979 -197.625 867.583C-154.583 911.479 -106.633 947.142 -57.8745 984.175C-57.8661 984.179 -57.5245 984.438 -57.5245 984.438L-57.1661 984.713C-14.5161 1016.75 3.42554 1033.78 8.52551 1073.4C7.97552 1074.53 5.80884 1078.2 -1.56616 1085.12C-77.4328 1145.43 -150.979 1217.88 -220.116 1300.41C-481.508 1611.46 -624.241 2020.51 -611.741 2422.61C-610.02 2481.04 -562.616 2526.8 -503.82 2526.8C-461.47 2526.8 -424.316 2502.65 -406.779 2463.56C-306.504 2238.3 -150.366 2039.37 44.8922 1888.16C141.476 1812.96 248.155 1749.71 361.955 1700.19L362.317 1700.03L362.663 1699.88C423.013 1672.68 486.792 1652.99 551.742 1641.43C556.901 1640.55 562.371 1640.11 567.996 1640.11C609.809 1640.11 664.692 1664.94 718.605 1708.26C754.18 1736.81 782.109 1772.7 811.688 1810.72C834.476 1840.03 858.046 1870.32 886.596 1899.25C914.842 1927.88 949.821 1943.64 985.084 1943.64C1044.65 1943.64 1094.22 1899.65 1105.63 1836.61C1111.24 1805.4 1116.15 1770.03 1120.24 1731.48C1121.58 1718.83 1132.41 1711.28 1142.11 1711.28C1144.52 1711.28 1146.96 1711.7 1149.36 1712.58C1160.66 1716.65 1171.87 1720.88 1182.69 1725.15C1194.63 1730.1 1207.19 1732.62 1220.02 1732.62C1253.54 1732.62 1284.96 1715.56 1304.09 1686.99C1322.38 1659.68 1326.11 1625.62 1314.17 1595.64C1292.55 1538.32 1266.74 1485.55 1237.48 1438.83L1237.05 1438.15L1236.61 1437.5C1207.01 1392.9 1173.16 1350.76 1136.02 1312.21C1131.01 1307.01 1128.6 1300.18 1129.71 1294.37C1135.15 1266.01 1154.16 1239.23 1186.16 1214.79C1208.36 1197.85 1233.58 1183.5 1260.25 1168.3C1274.85 1159.98 1289.94 1151.38 1304.93 1142.11C1367.54 1103.41 1431.3 1058.4 1494.4 1008.39C1535.3 976.008 1591.37 924.3 1606 849.296C1612.5 815.908 1605.77 784.129 1586.53 757.388C1546.65 701.988 1466.33 684.671 1393.06 675.046C1375.43 672.708 1357.78 670.483 1340.11 668.246C1244.17 656.121 1153.55 644.663 1065.69 618.571C1019.4 604.792 991.276 586.658 977.171 561.496C973.596 555.117 970.292 548.067 967.334 540.546C956.059 511.904 950.838 479.296 945.296 444.775C929.355 344.217 901.855 245.963 860.5 152.808C846.23 120.671 822.492 73.7459 781.092 37.3334C752.771 12.5584 722.901 0 692.355 0ZM692.355 59.8501C709.388 59.8501 726.326 68.95 741.696 82.3916C770.713 107.912 790.284 142.158 805.796 177.1C842.171 259.004 868.746 348.533 883.401 436.908C890.413 479.213 895.834 522.304 911.638 562.467C915.455 572.175 919.859 581.654 924.959 590.75C950.959 637.146 999.259 661.242 1048.61 675.942C1158.21 708.488 1272.36 719.479 1385.23 734.379C1437.54 741.25 1562.57 759.217 1547.25 837.85C1537.09 889.992 1497.35 929.721 1457.26 961.454C1398.51 1008.02 1337.23 1051.77 1273.46 1091.2C1232.25 1116.68 1188.42 1137.79 1149.87 1167.2C1111.4 1196.58 1080.26 1234.54 1070.93 1283.07C1066 1308.68 1074.81 1334.95 1092.91 1353.74C1127.64 1389.77 1159.1 1428.96 1186.75 1470.6C1215.81 1517 1239.27 1566.57 1258.4 1617.4C1269.48 1644.29 1246.58 1672.77 1220.02 1672.77C1215.15 1672.77 1210.17 1671.81 1205.25 1669.72C1193.45 1665.05 1181.58 1660.57 1169.65 1656.27C1160.48 1652.97 1151.2 1651.43 1142.11 1651.43C1101.71 1651.43 1065.28 1682.05 1060.71 1725.18C1056.95 1760.7 1052.28 1795.05 1046.72 1826.03C1040.32 1861.35 1014.98 1883.79 985.084 1883.79C967.047 1883.79 947.367 1875.63 929.184 1857.2C866.413 1793.58 826.242 1717.91 756.071 1661.59C706.551 1621.8 636.288 1580.26 567.996 1580.26C559.188 1580.26 550.426 1580.95 541.734 1582.42C471.663 1594.89 403.288 1615.92 338.076 1645.31C220.555 1696.45 109.267 1762.2 8.11719 1840.93C-194.274 1997.66 -357.341 2205.34 -461.445 2439.23C-470.004 2458.28 -486.92 2466.95 -503.82 2466.95C-527.437 2466.95 -551.054 2450.04 -551.916 2420.84C-564.079 2029.9 -425.725 1638.11 -174.295 1338.91C-110.983 1263.35 -40.3953 1192.23 37.3964 1130.6C56.7297 1112.96 71.3214 1093.09 67.9339 1066.03C59.6506 1000.55 23.738 970.621 -21.2203 936.854C-110.912 867.392 -192.895 796.442 -256.312 701.2C-282.937 661.217 -269.637 607.067 -227.562 583.988C-227.562 583.988 -206.279 572.592 -195.458 567.242C-135.429 537.604 -71.687 515.158 -5.51611 500.388C55.363 486.754 117.609 479.883 179.542 479.883C232.138 479.883 284.555 484.825 335.992 494.571C343.751 496.042 351.567 496.763 359.296 496.763C394.692 496.763 428.776 481.642 451.921 453.883C458.121 446.463 463.88 438.729 469.267 430.983C482.063 412.529 493.388 393.125 505.276 374.092C533.809 328.546 546.501 293.975 569.113 245.258C592.571 194.633 610.013 140.95 641.088 93.9166C657.213 69.4749 674.842 59.8501 692.355 59.8501Z" fill="white"/>
</g>
</svg>
