<svg width="629" height="430" viewBox="0 0 629 430" fill="none" xmlns="http://www.w3.org/2000/svg">
<path d="M593.783 335.004C593.783 380.104 463.658 416.666 303.137 416.666C142.621 416.666 12.4998 380.104 12.4998 335.004C12.4998 289.904 142.621 253.341 303.137 253.341C463.658 253.341 593.783 289.904 593.783 335.004Z" fill="white"/>
<mask id="mask0_33_62" style="mask-type:luminance" maskUnits="userSpaceOnUse" x="12" y="253" width="582" height="164">
<path d="M12.4961 335.007C12.4961 380.103 142.621 416.665 303.138 416.665C463.659 416.665 593.784 380.103 593.784 335.007C593.784 289.907 463.659 253.34 303.138 253.34C142.621 253.34 12.4961 289.907 12.4961 335.007Z" fill="white"/>
</mask>
<g mask="url(#mask0_33_62)">
<path d="M593.782 387.882C593.782 432.982 463.657 469.545 303.136 469.545C142.62 469.545 12.4989 432.982 12.4989 387.882C12.4989 342.782 142.62 306.22 303.136 306.22C463.657 306.22 593.782 342.782 593.782 387.882Z" fill="#2E0E2E"/>
<path d="M12.4988 387.882C12.4988 342.781 142.624 306.22 303.141 306.22C463.658 306.22 593.782 342.781 593.782 387.882C593.782 432.983 463.658 469.545 303.141 469.545C142.624 469.545 12.4988 432.983 12.4988 387.882Z" stroke="#2E0E2E" stroke-width="25" stroke-miterlimit="10"/>
</g>
<path d="M12.4998 335.004C12.4998 289.903 142.625 253.341 303.142 253.341C463.658 253.341 593.783 289.903 593.783 335.004C593.783 380.104 463.658 416.666 303.142 416.666C142.625 416.666 12.4998 380.104 12.4998 335.004Z" stroke="#2E0E2E" stroke-width="25" stroke-miterlimit="10"/>
<mask id="mask1_33_62" style="mask-type:luminance" maskUnits="userSpaceOnUse" x="6" y="0" width="623" height="417">
<path d="M333.021 2.67944C285.63 4.58361 241.217 6.49121 211.23 4.53288C-48.6538 -12.4046 12.4963 289.909 12.4963 335.009C12.4963 380.105 142.621 416.667 303.138 416.667C463.659 416.667 593.784 380.105 593.784 335.009C593.784 302.392 693.488 104.166 555.201 17.2414C533.655 3.69975 486.963 0 433.346 0C401.088 0 366.317 1.34194 333.021 2.67944Z" fill="white"/>
</mask>
<g mask="url(#mask1_33_62)">
<path d="M244.194 302.927C347.023 71.7146 507.656 62.8646 530.048 62.7813C531.377 62.773 532.344 64.148 531.981 65.5646C527.881 81.4521 505.323 164.79 455.623 276.535C378.89 449.077 259.148 682.86 244.106 712.135C243.369 713.573 241.552 713.656 240.723 712.281C226.952 689.365 142.044 532.606 244.194 302.927Z" fill="white"/>
<path d="M244.194 302.927C347.023 71.7146 507.656 62.8646 530.048 62.7813C531.377 62.773 532.344 64.148 531.981 65.5646C527.881 81.4521 505.323 164.79 455.623 276.535C378.89 449.077 259.148 682.86 244.106 712.135C243.369 713.573 241.552 713.656 240.723 712.281C226.952 689.365 142.044 532.606 244.194 302.927Z" stroke="#2E0E2E" stroke-width="25" stroke-miterlimit="10"/>
<path d="M164.766 392.237C70.3162 157.495 185.125 51.6784 200.512 38.8618C201.425 38.1034 202.687 38.3409 203.329 39.3909C211.037 51.9784 256.262 127.595 302.275 241.953C371.758 414.641 454.183 657.753 465.604 691.591C466.175 693.291 464.795 694.962 463.22 694.478C435.35 685.92 257.716 623.249 164.766 392.237Z" fill="white"/>
<path d="M164.766 392.237C70.3162 157.495 185.125 51.6784 200.512 38.8618C201.425 38.1034 202.687 38.3409 203.329 39.3909C211.037 51.9784 256.262 127.595 302.275 241.953C371.758 414.641 454.183 657.753 465.604 691.591C466.175 693.291 464.795 694.962 463.22 694.478C435.35 685.92 257.716 623.249 164.766 392.237Z" stroke="#2E0E2E" stroke-width="25" stroke-miterlimit="10"/>
</g>
</svg>
