<svg width="145" height="159" viewBox="0 0 145 159" fill="none" xmlns="http://www.w3.org/2000/svg">
<path d="M63.4042 158.71C62.7333 158.71 62.0625 158.535 61.4583 158.185C3.975 124.856 0.149999 91.6396 0.0166655 90.2396L0 10.3688C0 9.13542 0.591665 7.96875 1.5875 7.23958C2.5875 6.51042 3.87083 6.30208 5.05417 6.67708C30.225 14.6979 54.7417 3.91458 61.6542 0.41875C62.7542 -0.139583 64.0583 -0.139583 65.1542 0.41875C72.0667 3.91458 96.5917 14.6979 121.754 6.67708C122.942 6.30208 124.225 6.51042 125.221 7.23958C126.221 7.96875 126.808 9.13542 126.808 10.3688V26.5313C126.808 28.6729 125.075 30.4063 122.933 30.4063C120.792 30.4063 119.054 28.6729 119.054 26.5313V15.4646C95.2542 21.0938 73.4792 13.0063 63.4042 8.19792C53.3292 13.0063 31.55 21.1063 7.75417 15.4646V89.6188C8.10417 91.9271 13.4875 120.748 63.4042 150.34C113.325 120.748 118.704 91.9271 119.054 89.6188V64.9688C119.054 62.8271 120.792 61.0896 122.933 61.0896C125.075 61.0896 126.808 62.8271 126.808 64.9688V89.8688C126.658 91.6396 122.833 124.856 65.35 158.185C64.75 158.535 64.075 158.71 63.4042 158.71Z" fill="black"/>
<path d="M63.1617 108.488C62.1701 108.488 61.1784 108.109 60.4201 107.351L28.7867 75.7217C27.2742 74.2051 27.2742 71.7551 28.7867 70.2384C30.3034 68.7259 32.7576 68.7259 34.2701 70.2384L63.1617 99.1301L137.449 24.8426C138.962 23.3259 141.416 23.3259 142.928 24.8426C144.445 26.3551 144.445 28.8092 142.928 30.3217L65.9034 107.351C65.1451 108.109 64.1534 108.488 63.1617 108.488Z" fill="black"/>
</svg>
