<svg width="577" height="652" viewBox="0 0 577 652" fill="none" xmlns="http://www.w3.org/2000/svg">
<path d="M555.465 93.8633V17.5067C550.083 17.5067 543.113 17.5 527.877 17.5L45.095 17.5067C29.8584 17.5067 23.1284 17.5067 17.5067 17.5067V93.8633C21.1134 93.8633 29.8584 93.8717 45.095 93.8717L527.877 93.8633C543.113 93.8633 551.413 93.8633 555.465 93.8633Z" fill="black" stroke="black" stroke-width="35" stroke-linecap="round" stroke-linejoin="round"/>
<path d="M555.465 231.673V155.316H45.0933C29.8567 155.316 22.1317 155.316 17.505 155.316V231.673C21.915 231.673 29.8567 231.673 45.0933 231.673H555.465Z" fill="black" stroke="black" stroke-width="35" stroke-linecap="round" stroke-linejoin="round"/>
<path d="M559.313 634.166V297.798C559.313 295.076 543.107 296.003 527.87 296.003H45.0883C29.8517 296.003 17.5 295.078 17.5 297.798V629.261C22.19 626.558 273.192 492.398 286.985 485.965C295.578 490.918 514.42 608.273 559.328 634.155L559.313 634.166Z" fill="black" stroke="black" stroke-width="35" stroke-linecap="round" stroke-linejoin="round"/>
</svg>
