<svg width="1825" height="2592" viewBox="0 0 1825 2592" fill="none" xmlns="http://www.w3.org/2000/svg">
<g opacity="0.3">
<path d="M1110.08 578.859C1106.69 580.43 1103.33 582.051 1099.99 583.721C1103.33 582.059 1106.69 580.424 1110.08 578.859ZM1148.5 563.612C1135.67 567.845 1123.14 572.865 1110.89 578.493C1123.14 572.887 1135.71 567.93 1148.5 563.612ZM1091.71 587.907C1094.44 586.456 1097.22 585.106 1099.99 583.721C1099.36 584.037 1098.71 584.326 1098.07 584.647C1095.97 585.698 1093.81 586.802 1091.71 587.907ZM1201.82 549.94C1183.63 553.197 1165.8 557.723 1148.5 563.612C1165.85 557.828 1183.68 553.197 1201.82 549.94ZM1246.05 544.682C1234.85 545.311 1223.75 546.468 1212.76 548.15C1223.75 546.523 1234.85 545.364 1246.05 544.682ZM1311.15 546.417C1324.61 547.939 1338.12 550.201 1351.59 553.197C1338.07 550.15 1324.61 547.939 1311.15 546.417ZM1355.9 689.324C1352.59 691.689 1349.3 694.09 1345.91 696.343C1349.29 694.077 1352.6 691.717 1355.9 689.324ZM1368.04 680.305L1373.25 676.2C1374.25 675.413 1375.14 674.675 1376.09 673.942C1372.82 676.645 1369.44 679.206 1366.07 681.791C1366.72 681.302 1367.41 680.788 1368.04 680.305ZM1355.9 689.324C1359.33 686.872 1362.73 684.365 1366.07 681.791C1364.68 682.839 1363.31 683.87 1361.84 684.984C1359.86 686.446 1357.88 687.887 1355.9 689.324ZM1425.96 624.448C1428.65 621.233 1431.31 617.999 1433.9 614.69C1431.3 617.989 1428.66 621.243 1425.96 624.448ZM1399.75 652.747C1400.96 651.592 1402.12 650.382 1403.33 649.17C1404.43 648.068 1405.63 646.835 1406.85 645.562C1404.5 647.972 1402.17 650.405 1399.75 652.747ZM1433.9 614.69C1436.65 611.198 1439.35 607.655 1441.98 604.052C1439.36 607.66 1436.64 611.185 1433.9 614.69ZM1425.81 624.623C1425.86 624.566 1425.91 624.504 1425.96 624.448C1425.91 624.504 1425.86 624.564 1425.81 624.623ZM1408.43 643.912C1407.89 644.481 1407.38 645.015 1406.85 645.562C1413.43 638.832 1419.75 631.848 1425.81 624.623C1420.23 631.245 1414.44 637.671 1408.43 643.912Z" fill="white"/>
<path d="M1568.12 985.956H1574.54C1578.82 985.956 1581.84 985.263 1583.59 983.876C1585.34 982.488 1586.22 980.7 1586.22 978.511C1586.22 976.321 1585.38 974.532 1583.7 973.146C1582.02 971.759 1579.16 971.066 1575.13 971.066H1568.12V985.956ZM1554.72 962.342H1579.89C1587.02 962.342 1592.18 963.779 1595.38 966.651C1598.57 969.526 1600.17 973.377 1600.17 978.205C1600.17 981.975 1598.95 985.24 1596.51 987.998C1594.08 990.758 1590.24 992.757 1585 993.998C1587.16 994.827 1588.74 995.7 1589.75 996.619C1591.18 997.908 1592.67 999.816 1594.24 1002.35C1594.33 1002.53 1597.36 1007.95 1603.34 1018.62H1586.79C1581.41 1007.91 1577.8 1001.51 1575.96 999.413C1574.12 997.322 1572.28 996.275 1570.44 996.275C1570.03 996.275 1569.45 996.345 1568.72 996.482V1018.62H1554.72V962.342ZM1615.8 998.06C1618.31 981.252 1612.73 967.784 1599.08 957.649C1594.82 954.487 1589.78 952.393 1584.54 951.609C1567.74 949.099 1554.27 954.677 1544.15 968.342C1540.99 972.605 1538.89 977.651 1538.11 982.898C1535.6 999.713 1541.18 1013.19 1554.85 1023.32C1559.1 1026.48 1564.14 1028.57 1569.38 1029.35C1586.18 1031.86 1599.65 1026.28 1609.77 1012.61C1612.93 1008.35 1615.02 1003.31 1615.8 998.06ZM1631.99 980.914C1634.54 997.945 1630.42 1013.15 1619.62 1026.53C1617.62 1029 1615.34 1031.27 1612.86 1033.26C1599.54 1043.92 1584.41 1048 1567.48 1045.5C1564.29 1045.02 1561.14 1044.19 1558.13 1043.03C1542.11 1036.85 1530.94 1025.78 1524.62 1009.82C1523.44 1006.83 1522.58 1003.71 1522.08 1000.53C1519.36 983.456 1523.42 968.137 1534.26 954.56C1536.29 952.019 1538.62 949.691 1541.17 947.662C1554.62 936.93 1569.85 932.889 1586.84 935.539C1589.98 936.028 1593.09 936.862 1596.05 938.012C1612.06 944.234 1623.21 955.398 1629.48 971.5C1630.66 974.526 1631.51 977.701 1631.99 980.914Z" fill="white"/>
<path d="M1014.5 637.963C992.708 637.963 975.043 655.629 975.043 677.42C975.043 679.941 975.304 682.398 975.757 684.787C998.817 690.211 1021.47 696.587 1043.65 703.946C1050.03 696.937 1053.95 687.647 1053.95 677.42C1053.95 655.629 1036.29 637.963 1014.5 637.963Z" fill="white"/>
<path d="M1561.67 1336.23C1549.08 1317.62 1536.3 1299.39 1522.02 1282.02C1508.85 1266 1494.97 1250.59 1480.79 1235.47C1421 1171.73 1350.75 1117.93 1273.86 1076.44C1193.51 1033.11 1108.12 1006.35 1016.35 1004.72C991.848 1004.24 967.396 1005.61 942.999 1008.03C898.562 1012.71 854.918 1022.07 812.006 1034.43C811.691 1034.48 811.43 1034.58 811.114 1034.69C811.009 1034.69 810.954 1034.69 810.904 1034.74C803.962 1036.74 798.283 1029.17 801.963 1023.07C835.987 967.01 875.74 925.464 929.798 888.918C936.529 884.343 943.418 880.137 950.464 876.087C955.302 873.352 957.195 868.882 956.88 864.511C956.876 858.683 951.484 854.479 946.677 852.264C931.954 845.469 916.846 835.836 902.101 824.385C884.861 810.998 869.005 795.896 854.226 779.839C845.021 769.836 834.833 757.221 825.217 743.657C813.784 727.537 816.425 705.375 831.319 692.382C841.811 683.23 852.761 674.674 864.277 666.737C868.228 664.011 872.218 661.321 876.319 658.691C902.978 641.703 931.744 628.032 961.875 618.092C996.812 606.569 1033.37 600.119 1070.14 599.054C1071.35 599.019 1072.53 598.677 1073.57 598.057C1079.53 594.504 1085.57 591.095 1091.71 587.907C1109.9 578.232 1128.89 570.082 1148.5 563.614C1165.8 557.723 1183.63 553.199 1201.82 549.94C1237.86 543.487 1274.77 542.271 1311.15 546.417C1324.61 547.939 1338.07 550.15 1351.59 553.199C1383.15 560.257 1412.93 570.999 1440.46 584.997C1446.37 588.002 1448.22 595.474 1444.38 600.878C1427 625.316 1406.34 647.615 1383.95 667.32C1352.16 695.305 1315.28 717.606 1275.92 733.285C1274.15 733.988 1272.35 734.587 1270.56 735.264C1270.1 735.444 1269.62 735.609 1269.16 735.786C1263.65 737.858 1258.1 739.812 1252.5 741.63C1249.86 742.494 1247.21 743.34 1244.54 744.146C1243.15 744.566 1241.78 745.055 1240.39 745.459C1239.07 745.844 1237.74 746.176 1236.41 746.539C1235.94 746.672 1235.45 746.798 1234.97 746.93C1230.2 748.209 1225.42 749.43 1220.64 750.732C1219.82 750.958 1218.88 751.112 1217.88 751.207C1217.62 751.232 1217.36 751.269 1217.11 751.326C1208.78 753.178 1200.36 754.752 1191.86 756.041C1185.15 757.057 1183.52 765.97 1189.38 769.383C1189.44 769.419 1189.51 769.456 1189.57 769.492C1266.13 813.927 1333.45 870.774 1391.24 937.824C1399.12 946.92 1406.8 956.229 1414.32 965.642C1451.18 1012.02 1482.73 1062.56 1508.4 1115.94C1528.12 1156.96 1544.31 1199.71 1556.67 1243.57C1564.71 1272.13 1571.37 1301.12 1575.97 1330.44C1577.23 1338.8 1566.4 1343.22 1561.67 1336.23ZM1444.45 930.672C1413.01 893.141 1377.96 857.81 1339.33 827.19C1339.19 827.079 1339.05 826.961 1338.92 826.841C1329.4 818.103 1322.25 808.261 1323.93 794.893C1328.05 762.314 1345.92 747.422 1368.29 730.62C1371.88 727.836 1375.72 725.365 1379.41 722.713C1380.52 721.918 1381.58 721.057 1382.68 720.252C1384.31 719.062 1385.99 717.948 1387.6 716.733C1389.16 715.559 1390.65 714.291 1392.19 713.092C1394.06 711.642 1395.91 710.165 1397.76 708.683C1400.96 706.115 1404.13 703.524 1407.26 700.862C1409.37 699.07 1411.44 697.233 1413.51 695.397C1416.14 693.068 1418.77 690.742 1421.35 688.347C1424.28 685.623 1427.14 682.826 1430 680.023C1431.61 678.433 1433.25 676.87 1434.84 675.259C1438.97 671.077 1442.99 666.801 1446.94 662.454C1447.26 662.093 1447.6 661.748 1447.93 661.389C1461.55 646.29 1474.1 630.262 1485.26 613.36L1485.26 613.364C1485.26 613.356 1485.27 613.349 1485.27 613.341C1498.5 593.465 1491.89 566.526 1470.96 555.04C1470.96 555.04 1460.37 549.37 1454.98 546.71C1425.11 531.958 1393.4 520.797 1360.47 513.446C1330.18 506.66 1299.21 503.241 1268.4 503.241C1242.23 503.241 1216.14 505.7 1190.56 510.549C1169.02 514.629 1146.91 507.139 1132.87 490.305C1129.79 486.611 1126.92 482.766 1124.24 478.909C1117.87 469.728 1112.24 460.072 1106.33 450.602C1092.13 427.937 1085.82 410.74 1074.57 386.498C1062.89 361.309 1054.22 334.594 1038.76 311.193C1022.93 287.213 1004.21 291.894 988.694 305.46C974.259 318.158 964.518 335.197 956.803 352.581C948.589 371.076 941.64 390.383 935.48 409.646C934.977 411.226 934.479 412.804 933.991 414.39C927.173 436.479 921.969 459.058 918.192 481.862C914.703 502.91 912.003 524.347 904.141 544.332C902.24 549.162 900.048 553.877 897.51 558.407C884.574 581.493 860.544 593.48 835.987 600.792C781.454 616.99 724.664 622.458 668.5 629.871C642.472 633.292 580.264 642.231 587.889 681.355C592.944 707.298 612.713 727.067 632.664 742.857C661.895 766.028 692.38 787.797 724.113 807.418C744.615 820.095 766.425 830.6 785.608 845.23C802.795 858.362 817.045 874.935 823.133 895.668C827.736 911.345 823.227 928.265 811.971 940.108C795.473 957.467 780.487 976.266 767.256 996.196C752.794 1019.28 741.122 1043.95 731.603 1069.24C725.083 1085.07 742.227 1102 758.052 1095.27C760.88 1094.15 763.715 1093.05 766.557 1091.98C795.634 1080.98 827.338 1100.52 830.909 1131.4C832.602 1146.03 834.61 1160.13 836.932 1173.05C842.032 1201.23 871.376 1212.91 895.408 1188.56C926.642 1156.9 946.626 1119.25 981.54 1091.22C1009.36 1068.87 1050.32 1045.42 1088.19 1051.83C1123.05 1058.04 1157.07 1068.5 1189.52 1083.12C1247.99 1108.58 1303.36 1141.28 1353.69 1180.46C1454.39 1258.45 1535.53 1361.78 1587.33 1478.16C1597.53 1500.88 1631.6 1493.93 1632.34 1469.01C1638.39 1274.49 1569.55 1079.55 1444.45 930.672Z" fill="white"/>
</g>
</svg>
