<svg width="229" height="262" viewBox="0 0 229 262" fill="none" xmlns="http://www.w3.org/2000/svg">
<path d="M114.375 62.2598C113.633 62.6017 112.898 62.958 112.168 63.3228C112.898 62.9608 113.633 62.6017 114.375 62.2598ZM122.781 58.9244C119.974 59.8495 117.233 60.9469 114.553 62.1794C117.233 60.9527 119.98 59.8696 122.781 58.9244ZM110.355 64.2393C110.953 63.9204 111.562 63.6245 112.168 63.3228C112.03 63.3918 111.887 63.455 111.749 63.5268C111.289 63.7566 110.815 63.9979 110.355 64.2393ZM134.445 55.9338C130.466 56.6462 126.564 57.6345 122.781 58.9244C126.576 57.6575 130.474 56.6462 134.445 55.9338ZM144.12 54.7817C141.67 54.9196 139.242 55.1753 136.838 55.543C139.242 55.1868 141.67 54.9311 144.12 54.7817ZM158.361 55.1638C161.306 55.4971 164.262 55.9912 167.207 56.6462C164.251 55.9797 161.306 55.4971 158.361 55.1638ZM168.149 86.4236C167.425 86.9407 166.707 87.4665 165.966 87.9577C166.704 87.4636 167.428 86.9465 168.149 86.4236ZM170.807 84.45L171.947 83.5536C172.165 83.3812 172.361 83.2204 172.568 83.0595C171.849 83.6513 171.111 84.2115 170.376 84.7746C170.516 84.6683 170.669 84.5563 170.807 84.45ZM168.149 86.4236C168.902 85.8864 169.643 85.3377 170.376 84.7746C170.071 85.0044 169.772 85.2314 169.451 85.4756C169.017 85.7945 168.583 86.1105 168.149 86.4236ZM183.476 72.2316C184.065 71.5277 184.648 70.821 185.214 70.0971C184.645 70.8181 184.068 71.5306 183.476 72.2316ZM177.745 78.4227C178.009 78.1698 178.262 77.9055 178.526 77.6412C178.767 77.3999 179.029 77.1299 179.296 76.8512C178.782 77.3769 178.273 77.9113 177.745 78.4227ZM185.214 70.0971C185.815 69.3329 186.406 68.5601 186.981 67.77C186.409 68.5601 185.815 69.33 185.214 70.0971ZM179.641 76.4892C179.526 76.6156 179.411 76.7305 179.296 76.8512C180.735 75.3774 182.12 73.8519 183.444 72.269C182.223 73.7198 180.956 75.1246 179.641 76.4892Z" fill="#FFAA00"/>
<path d="M214.576 151.313H215.98C216.917 151.313 217.578 151.16 217.96 150.859C218.345 150.554 218.534 150.164 218.534 149.684C218.534 149.204 218.35 148.813 217.986 148.512C217.618 148.207 216.992 148.055 216.11 148.055H214.576V151.313ZM211.645 146.147H217.152C218.71 146.147 219.839 146.46 220.54 147.09C221.238 147.719 221.588 148.561 221.588 149.618C221.588 150.442 221.321 151.155 220.787 151.761C220.255 152.364 219.413 152.801 218.267 153.071C218.741 153.252 219.089 153.444 219.31 153.645C219.62 153.927 219.948 154.344 220.29 154.898C220.31 154.938 220.973 156.125 222.281 158.458H218.661C217.483 156.116 216.693 154.714 216.291 154.257C215.888 153.798 215.486 153.571 215.084 153.571C214.995 153.571 214.869 153.585 214.708 153.614V158.458H211.645V146.147ZM225.007 153.962C225.556 150.284 224.335 147.337 221.35 145.122C220.416 144.429 219.316 143.97 218.167 143.8C214.492 143.251 211.548 144.47 209.333 147.46C208.64 148.391 208.183 149.497 208.011 150.643C207.462 154.323 208.683 157.271 211.671 159.486C212.602 160.178 213.705 160.635 214.851 160.805C218.526 161.356 221.473 160.135 223.688 157.142C224.378 156.211 224.835 155.108 225.007 153.962ZM228.546 150.21C229.107 153.936 228.204 157.262 225.84 160.19C225.403 160.73 224.906 161.227 224.363 161.661C221.45 163.994 218.141 164.884 214.438 164.338C213.74 164.235 213.05 164.051 212.392 163.798C208.887 162.445 206.442 160.023 205.061 156.533C204.802 155.881 204.615 155.194 204.503 154.502C203.911 150.767 204.799 147.414 207.169 144.444C207.615 143.889 208.123 143.381 208.68 142.935C211.622 140.588 214.955 139.703 218.672 140.284C219.359 140.39 220.037 140.574 220.686 140.824C224.188 142.186 226.627 144.628 227.998 148.15C228.256 148.813 228.443 149.506 228.546 150.21Z" fill="#FFAA00"/>
<path d="M93.4651 75.189C88.699 75.189 84.835 79.053 84.835 83.8191C84.835 84.3707 84.8924 84.9079 84.9901 85.4308C90.0349 86.6173 94.9906 88.0135 99.84 89.6223C101.239 88.0882 102.095 86.0571 102.095 83.8191C102.095 79.053 98.2312 75.189 93.4651 75.189Z" fill="#FFAA00"/>
<path d="M213.165 227.935C210.41 223.864 207.617 219.877 204.492 216.076C201.61 212.574 198.576 209.201 195.471 205.894C182.393 191.952 167.023 180.182 150.206 171.107C132.626 161.629 113.947 155.774 93.8714 155.415C88.5106 155.315 83.1613 155.613 77.8263 156.142C68.1045 157.165 58.5551 159.213 49.1694 161.916C49.1004 161.928 49.0429 161.951 48.974 161.974C48.951 161.974 48.9395 161.974 48.928 161.985C47.4083 162.422 46.1672 160.764 46.9716 159.431C54.4152 147.17 63.1114 138.08 74.9362 130.085C76.41 129.085 77.9154 128.166 79.4581 127.278C80.5182 126.681 80.9319 125.704 80.863 124.747C80.8601 123.472 79.6822 122.552 78.6307 122.067C75.4102 120.581 72.1036 118.473 68.8773 115.968C65.1081 113.04 61.6377 109.736 58.4057 106.226C56.116 103.735 53.5476 100.509 51.2005 97.0755C49.2642 94.2457 49.6922 90.4219 52.2376 88.1208C54.8806 85.7277 57.6587 83.5127 60.6034 81.4815C61.4682 80.8869 62.3415 80.2979 63.2378 79.7233C69.0698 76.0058 75.3643 73.0152 81.9546 70.8433C89.7258 68.2778 97.8618 66.8643 106.044 66.6661C107.457 65.8157 108.897 64.997 110.356 64.2385C114.338 62.1212 118.489 60.34 122.781 58.9237C126.565 57.6366 130.466 56.6455 134.445 55.933C142.328 54.5224 150.404 54.2553 158.362 55.1631C161.306 55.4963 164.251 55.979 167.207 56.6455C174.114 58.1911 180.627 60.5411 186.651 63.6036C187.944 64.2586 188.346 65.8933 187.507 67.0769C183.706 72.4234 179.184 77.2986 174.289 81.6108C167.064 87.9685 158.643 93.019 149.643 96.4263C144.058 98.5407 138.226 100.101 132.29 101.011C130.805 101.238 130.426 103.18 131.724 103.936L131.765 103.962C148.514 113.681 163.24 126.117 175.881 140.783C177.607 142.774 179.288 144.811 180.931 146.868C188.995 157.015 195.899 168.07 201.512 179.745C205.825 188.72 209.367 198.072 212.073 207.667C213.828 213.913 215.288 220.256 216.293 226.668C216.569 228.498 214.199 229.466 213.165 227.935ZM187.524 139.221C180.632 130.996 172.947 123.253 164.481 116.545C162.375 114.626 160.789 112.463 161.157 109.518C162.059 102.39 165.969 99.1325 170.862 95.4581C171.646 94.849 172.488 94.3089 173.295 93.7286C173.536 93.5534 173.769 93.3666 174.01 93.1885C174.367 92.93 174.734 92.6858 175.085 92.4186C175.427 92.1629 175.754 91.8842 176.09 91.6228C176.501 91.3068 176.906 90.9822 177.308 90.6575C178.009 90.0973 178.702 89.5313 179.385 88.9481C179.848 88.5546 180.302 88.1552 180.756 87.753C181.33 87.2445 181.905 86.7332 182.468 86.2103C183.112 85.6156 183.735 85.0037 184.361 84.3889C184.715 84.0413 185.074 83.6994 185.421 83.346C186.323 82.4325 187.203 81.4959 188.067 80.545C188.139 80.4674 188.211 80.3927 188.283 80.3123C191.262 77.0113 194.008 73.5036 196.45 69.8062L196.453 69.8033C199.346 65.4537 197.901 59.5615 193.322 57.0477C193.322 57.0477 191.003 55.8095 189.826 55.2263C183.293 52.0001 176.355 49.5581 169.152 47.9493C162.525 46.4669 155.75 45.7171 149.008 45.7171C143.285 45.7171 137.579 46.2572 131.98 47.3173C127.269 48.2079 122.434 46.5703 119.362 42.8873C118.687 42.08 118.061 41.2383 117.475 40.3965C116.082 38.3884 114.849 36.2739 113.556 34.2026C110.448 29.244 109.069 25.4834 106.607 20.18C104.053 14.6699 102.154 8.82643 98.7725 3.70696C95.3107 -1.53891 91.2139 -0.513297 87.8211 2.45439C84.6638 5.22959 82.5321 8.95859 80.8457 12.7594C79.0473 16.8073 77.5275 21.0304 76.1802 25.2449C76.071 25.5897 75.9618 25.9344 75.8555 26.282C74.3616 31.1142 73.224 36.0527 72.3995 41.04C71.6353 45.6452 71.0435 50.3338 69.3255 54.7063C68.9089 55.7635 68.4291 56.7949 67.8747 57.786C65.0449 62.8366 59.7875 65.4595 54.4152 67.0568C42.487 70.6019 30.0618 71.7971 17.7774 73.4174C12.0805 74.1672 -1.52834 76.1207 0.140804 84.6819C1.24686 90.3559 5.57056 94.6795 9.93733 98.1356C16.3324 103.203 23.0003 107.967 29.9412 112.256C34.4257 115.031 39.1976 117.329 43.3949 120.53C47.5807 123.727 50.9707 127.858 51.9848 133.142C52.522 135.928 51.5625 138.787 49.5917 140.832C45.8138 144.754 42.3894 149.02 39.3786 153.553C36.2155 158.604 33.6616 163.999 31.5816 169.532C30.1538 172.994 33.9029 176.697 37.3676 175.226C38.6517 174.718 39.9417 174.23 41.2402 173.761C46.6786 171.802 52.4875 175.514 53.0966 181.262C53.5074 185.129 54.0159 188.867 54.6221 192.24C55.7368 198.405 62.1576 200.959 67.415 195.632C74.2467 188.709 78.6192 180.472 86.2554 174.339C92.343 169.452 101.303 164.321 109.586 165.723C117.213 167.082 124.657 169.372 131.753 172.569C144.546 178.137 156.658 185.29 167.667 193.863C189.696 210.922 207.448 233.526 218.778 258.982C221.011 263.952 228.463 262.433 228.627 256.983C229.948 214.43 214.891 171.785 187.524 139.221Z" fill="#FFAA00"/>
<path d="M213.165 227.935C210.41 223.864 207.617 219.877 204.492 216.076C201.61 212.574 198.576 209.201 195.471 205.894C182.393 191.952 167.023 180.182 150.206 171.107C132.626 161.629 113.947 155.774 93.8714 155.415C88.5106 155.315 83.1613 155.613 77.8263 156.142C68.1045 157.165 58.5551 159.213 49.1694 161.916C49.1004 161.928 49.0429 161.951 48.974 161.974C48.951 161.974 48.9395 161.974 48.928 161.985C47.4083 162.422 46.1672 160.764 46.9716 159.431C54.4152 147.17 63.1114 138.08 74.9362 130.085C76.41 129.085 77.9154 128.166 79.4581 127.278C80.5182 126.681 80.9319 125.704 80.863 124.747C80.8601 123.472 79.6822 122.552 78.6307 122.067C75.4102 120.581 72.1036 118.473 68.8773 115.968C65.1081 113.04 61.6377 109.736 58.4057 106.226C56.116 103.735 53.5476 100.509 51.2005 97.0755C49.2642 94.2457 49.6922 90.4219 52.2376 88.1208C54.8806 85.7277 57.6587 83.5127 60.6034 81.4815C61.4682 80.8869 62.3415 80.2979 63.2378 79.7233C69.0698 76.0058 75.3643 73.0152 81.9546 70.8433C89.7258 68.2778 97.8618 66.8643 106.044 66.6661C107.457 65.8157 108.897 64.997 110.356 64.2385C114.338 62.1212 118.489 60.34 122.781 58.9237C126.565 57.6366 130.466 56.6455 134.445 55.933C142.328 54.5224 150.404 54.2553 158.362 55.1631C161.306 55.4963 164.251 55.979 167.207 56.6455C174.114 58.1911 180.627 60.5411 186.651 63.6036C187.944 64.2586 188.346 65.8933 187.507 67.0769C183.706 72.4234 179.184 77.2986 174.289 81.6108C167.064 87.9685 158.643 93.019 149.643 96.4263C144.058 98.5407 138.226 100.101 132.29 101.011C130.805 101.238 130.426 103.18 131.724 103.936L131.765 103.962C148.514 113.681 163.24 126.117 175.881 140.783C177.607 142.774 179.288 144.811 180.931 146.868C188.995 157.015 195.899 168.07 201.512 179.745C205.825 188.72 209.367 198.072 212.073 207.667C213.828 213.913 215.288 220.256 216.293 226.668C216.569 228.498 214.199 229.466 213.165 227.935ZM187.524 139.221C180.632 130.996 172.947 123.253 164.481 116.545C162.375 114.626 160.789 112.463 161.157 109.518C162.059 102.39 165.969 99.1325 170.862 95.4581C171.646 94.849 172.488 94.3089 173.295 93.7286C173.536 93.5534 173.769 93.3666 174.01 93.1885C174.367 92.93 174.734 92.6858 175.085 92.4186C175.427 92.1629 175.754 91.8842 176.09 91.6228C176.501 91.3068 176.906 90.9822 177.308 90.6575C178.009 90.0973 178.702 89.5313 179.385 88.9481C179.848 88.5546 180.302 88.1552 180.756 87.753C181.33 87.2445 181.905 86.7332 182.468 86.2103C183.112 85.6156 183.735 85.0037 184.361 84.3889C184.715 84.0413 185.074 83.6994 185.421 83.346C186.323 82.4325 187.203 81.4959 188.067 80.545C188.139 80.4674 188.211 80.3927 188.283 80.3123C191.262 77.0113 194.008 73.5036 196.45 69.8062L196.453 69.8033C199.346 65.4537 197.901 59.5615 193.322 57.0477C193.322 57.0477 191.003 55.8095 189.826 55.2263C183.293 52.0001 176.355 49.5581 169.152 47.9493C162.525 46.4669 155.75 45.7171 149.008 45.7171C143.285 45.7171 137.579 46.2572 131.98 47.3173C127.269 48.2079 122.434 46.5703 119.362 42.8873C118.687 42.08 118.061 41.2383 117.475 40.3965C116.082 38.3884 114.849 36.2739 113.556 34.2026C110.448 29.244 109.069 25.4834 106.607 20.18C104.053 14.6699 102.154 8.82643 98.7725 3.70696C95.3107 -1.53891 91.2139 -0.513297 87.8211 2.45439C84.6638 5.22959 82.5321 8.95859 80.8457 12.7594C79.0473 16.8073 77.5275 21.0304 76.1802 25.2449C76.071 25.5897 75.9618 25.9344 75.8555 26.282C74.3616 31.1142 73.224 36.0527 72.3995 41.04C71.6353 45.6452 71.0435 50.3338 69.3255 54.7063C68.9089 55.7635 68.4291 56.7949 67.8747 57.786C65.0449 62.8366 59.7875 65.4595 54.4152 67.0568C42.487 70.6019 30.0618 71.7971 17.7774 73.4174C12.0805 74.1672 -1.52834 76.1207 0.140804 84.6819C1.24686 90.3559 5.57056 94.6795 9.93733 98.1356C16.3324 103.203 23.0003 107.967 29.9412 112.256C34.4257 115.031 39.1976 117.329 43.3949 120.53C47.5807 123.727 50.9707 127.858 51.9848 133.142C52.522 135.928 51.5625 138.787 49.5917 140.832C45.8138 144.754 42.3894 149.02 39.3786 153.553C36.2155 158.604 33.6616 163.999 31.5816 169.532C30.1538 172.994 33.9029 176.697 37.3676 175.226C38.6517 174.718 39.9417 174.23 41.2402 173.761C46.6786 171.802 52.4875 175.514 53.0966 181.262C53.5074 185.129 54.0159 188.867 54.6221 192.24C55.7368 198.405 62.1576 200.959 67.415 195.632C74.2467 188.709 78.6192 180.472 86.2554 174.339C92.343 169.452 101.303 164.321 109.586 165.723C117.213 167.082 124.657 169.372 131.753 172.569C144.546 178.137 156.658 185.29 167.667 193.863C189.696 210.922 207.448 233.526 218.778 258.982C221.011 263.952 228.463 262.433 228.627 256.983C229.948 214.43 214.891 171.785 187.524 139.221Z" fill="#FFAA00"/>
</svg>
