<svg width="1825" height="2592" viewBox="0 0 1825 2592" fill="none" xmlns="http://www.w3.org/2000/svg">
<g opacity="0.6">
<path d="M4.01579 1383.88C-35.9195 1819.82 285.091 2205.59 721.017 2245.53C1156.94 2285.47 1542.7 1964.45 1582.64 1528.51C1622.57 1092.57 1301.56 706.79 865.638 666.852C429.714 626.913 43.9513 947.937 4.01579 1383.88Z" stroke="white" stroke-width="0.933333" stroke-miterlimit="10"/>
<path d="M239.675 1724.49C199.687 2160.98 521.102 2547.24 957.576 2587.22C1394.05 2627.21 1780.3 2305.79 1820.28 1869.3C1860.27 1432.81 1538.86 1046.55 1102.38 1006.56C665.909 966.57 279.66 1288 239.675 1724.49Z" stroke="white" stroke-width="0.933333" stroke-miterlimit="10"/>
<path d="M756.679 345.861C737.542 554.76 891.369 739.62 1100.26 758.757C1309.15 777.895 1494 624.064 1513.14 415.165C1532.28 206.265 1378.45 21.4058 1169.56 2.26795C960.67 -16.8679 775.817 136.961 756.679 345.861Z" stroke="white" stroke-width="0.933333" stroke-miterlimit="10"/>
<path d="M714.351 878.86C659.124 1081.23 778.4 1290.06 980.765 1345.29C1183.13 1400.52 1391.95 1281.24 1447.18 1078.87C1502.41 876.496 1383.13 667.67 1180.77 612.438C978.401 557.207 769.579 676.489 714.351 878.86Z" stroke="white" stroke-width="0.933333" stroke-miterlimit="10"/>
<path d="M898.035 841.033C852.268 1045.75 981.117 1248.81 1185.83 1294.58C1390.54 1340.35 1593.59 1211.5 1639.36 1006.78C1685.13 802.055 1556.28 598.996 1351.57 553.227C1146.86 507.458 943.802 636.314 898.035 841.033Z" stroke="white" stroke-width="0.933333" stroke-miterlimit="10"/>
<path d="M757.366 1170.86C738.548 1376.28 889.809 1558.06 1095.22 1576.88C1300.63 1595.7 1482.4 1444.43 1501.22 1239.01C1520.03 1033.6 1368.77 851.818 1163.36 832.999C957.956 814.182 776.185 965.449 757.366 1170.86Z" stroke="white" stroke-width="0.933333" stroke-miterlimit="10"/>
<path d="M111.946 1705.68C71.9587 2142.17 393.373 2528.43 829.848 2568.41C1266.32 2608.4 1652.57 2286.98 1692.55 1850.49C1732.54 1414 1411.13 1027.74 974.653 987.748C538.18 947.76 151.932 1269.19 111.946 1705.68Z" stroke="white" stroke-width="0.933333" stroke-miterlimit="10"/>
<path d="M757.142 489.78C738.003 698.679 891.83 883.538 1100.72 902.676C1309.61 921.814 1494.47 767.983 1513.6 559.084C1532.74 350.186 1378.91 165.327 1170.02 146.189C961.131 127.051 776.278 280.882 757.142 489.78Z" stroke="white" stroke-width="0.933333" stroke-miterlimit="10"/>
<path d="M975.042 676.881C975.042 655.09 992.706 637.425 1014.5 637.425C1036.29 637.425 1053.95 655.09 1053.95 676.881C1053.95 698.673 1036.29 716.338 1014.5 716.338C992.706 716.338 975.042 698.673 975.042 676.881Z" stroke="white" stroke-width="0.933333" stroke-miterlimit="10"/>
</g>
</svg>
