<svg width="917" height="917" viewBox="0 0 917 917" fill="none" xmlns="http://www.w3.org/2000/svg">
<path d="M916.667 458.334C916.667 711.463 711.463 916.667 458.334 916.667C205.204 916.667 0.000244141 711.463 0.000244141 458.334C0.000244141 205.204 205.204 0.000244141 458.334 0.000244141C711.463 0.000244141 916.667 205.204 916.667 458.334Z" fill="#FFAA00"/>
<mask id="mask0_8_71" style="mask-type:luminance" maskUnits="userSpaceOnUse" x="0" y="0" width="917" height="917">
<path d="M0 458.333C0 711.463 205.2 916.667 458.333 916.667C711.463 916.667 916.667 711.463 916.667 458.333C916.667 205.2 711.463 0 458.333 0C205.2 0 0 205.2 0 458.333Z" fill="white"/>
</mask>
<g mask="url(#mask0_8_71)">
<path d="M841.259 607.793H846.001C849.164 607.793 851.393 607.28 852.689 606.255C853.98 605.235 854.626 603.914 854.626 602.293C854.626 600.676 854.005 599.355 852.768 598.33C851.526 597.31 849.418 596.797 846.434 596.797H841.259V607.793ZM831.364 590.355H849.955C855.218 590.355 859.03 591.414 861.393 593.535C863.751 595.66 864.93 598.501 864.93 602.068C864.93 604.855 864.03 607.264 862.23 609.301C860.43 611.339 857.593 612.818 853.722 613.73C855.322 614.343 856.493 614.989 857.239 615.668C858.293 616.618 859.397 618.03 860.551 619.897C860.618 620.035 862.859 624.039 867.276 631.918H855.047C851.072 624.005 848.409 619.276 847.051 617.735C845.693 616.185 844.334 615.414 842.976 615.414C842.672 615.414 842.247 615.468 841.705 615.568V631.918H831.364V590.355ZM876.476 616.73C878.326 604.318 874.209 594.372 864.126 586.889C860.98 584.555 857.259 583.005 853.384 582.426C840.976 580.572 831.034 584.693 823.555 594.785C821.222 597.935 819.676 601.66 819.097 605.535C817.243 617.955 821.364 627.905 831.455 635.393C834.601 637.722 838.322 639.268 842.189 639.843C854.601 641.697 864.543 637.576 872.026 627.476C874.355 624.33 875.897 620.605 876.476 616.73ZM888.43 604.068C890.314 616.647 887.268 627.876 879.293 637.76C877.818 639.585 876.139 641.264 874.305 642.726C864.464 650.605 853.297 653.614 840.789 651.764C838.434 651.414 836.105 650.805 833.884 649.947C822.051 645.38 813.801 637.205 809.134 625.418C808.264 623.214 807.63 620.901 807.255 618.56C805.251 605.947 808.251 594.635 816.255 584.605C817.755 582.73 819.472 581.01 821.355 579.514C831.293 571.585 842.534 568.601 855.089 570.56C857.405 570.922 859.697 571.535 861.884 572.385C873.714 576.98 881.943 585.226 886.576 597.118C887.447 599.351 888.072 601.697 888.43 604.068Z" fill="#2E0E2E"/>
<path d="M413.321 105.228C402.663 114.607 395.467 127.19 389.771 140.032C376.296 170.357 366.675 202.782 361.255 235.503C358.675 251.049 356.684 266.882 350.875 281.64C349.471 285.207 347.855 288.69 345.98 292.036C336.425 309.086 318.675 317.94 300.538 323.34C260.267 335.303 218.321 339.34 176.842 344.815C157.617 347.34 111.675 353.94 117.305 382.836C121.038 401.999 135.642 416.599 150.375 428.257C171.963 445.369 194.48 461.449 217.917 475.94C233.055 485.299 249.163 493.061 263.334 503.865C277.467 514.661 288.909 528.611 292.338 546.444C294.15 555.853 290.913 565.507 284.259 572.411C271.5 585.653 259.938 600.053 249.78 615.353C239.096 632.403 230.48 650.624 223.446 669.303C218.634 680.99 231.292 693.499 242.98 688.524C247.321 686.807 251.68 685.161 256.063 683.586C274.421 676.969 294.034 689.499 296.092 708.907C297.475 721.957 299.192 734.586 301.238 745.965C305.005 766.782 326.675 775.407 344.425 757.424C367.496 734.044 382.25 706.232 408.038 685.536C428.584 669.028 458.838 651.707 486.805 656.444C512.55 661.028 537.68 668.757 561.642 679.557C604.83 698.353 645.721 722.507 682.892 751.444C757.263 809.036 817.192 885.353 855.446 971.299C862.98 988.078 888.146 982.949 888.692 964.54C893.155 820.882 842.321 676.915 749.925 566.965C726.659 539.194 700.721 513.061 672.134 490.419C665.03 483.932 659.667 476.632 660.909 466.69C663.959 442.628 677.155 431.632 693.671 419.219C714.03 403.928 734.38 388.024 751.763 368.878C752.005 368.615 752.255 368.357 752.492 368.09C762.55 356.94 771.821 345.103 780.075 332.607C789.846 317.932 784.959 298.032 769.5 289.549C769.5 289.549 761.68 285.361 757.7 283.399C735.642 272.503 712.221 264.261 687.905 258.832C665.534 253.819 642.659 251.294 619.896 251.294C600.567 251.294 581.309 253.111 562.409 256.694C546.505 259.703 530.175 254.169 519.805 241.74C517.53 239.015 515.409 236.174 513.434 233.324C508.73 226.544 504.571 219.415 500.2 212.419C489.713 195.682 485.055 182.982 476.742 165.078C468.121 146.474 461.713 126.74 450.296 109.465C444.367 100.482 437.892 96.9443 431.455 96.9443C425.192 96.9443 418.971 100.29 413.321 105.228ZM275.413 635.199C300.538 593.803 329.9 563.119 369.825 536.128C374.796 532.749 379.884 529.644 385.088 526.653C388.663 524.632 390.059 521.332 389.825 518.103C389.821 513.799 385.842 510.694 382.292 509.057C371.417 504.04 360.259 496.928 349.367 488.469C336.634 478.582 324.93 467.428 314.013 455.569C306.28 447.169 297.609 436.274 289.684 424.686C283.155 415.128 284.596 402.219 293.184 394.453C302.113 386.374 311.488 378.894 321.434 372.04C324.35 370.028 327.3 368.04 330.325 366.103C350.017 353.553 371.263 343.457 393.513 336.115C419.75 327.461 447.221 322.686 474.842 322.019C479.617 319.144 484.471 316.386 489.405 313.824C502.842 306.678 516.859 300.657 531.35 295.882C544.125 291.532 557.292 288.19 570.73 285.786C597.342 281.015 624.609 280.119 651.471 283.182C661.413 284.307 671.355 285.94 681.338 288.19C704.655 293.403 726.646 301.336 746.98 311.674C751.346 313.894 752.705 319.411 749.871 323.403C737.038 341.449 721.775 357.919 705.242 372.474C680.855 393.94 652.425 410.986 622.042 422.49C603.18 429.628 583.492 434.903 563.45 437.969C558.442 438.74 557.163 445.299 561.542 447.849C561.588 447.874 561.634 447.903 561.68 447.928C618.225 480.744 667.938 522.728 710.621 572.244C716.446 578.965 722.117 585.84 727.671 592.79C754.896 627.044 778.196 664.369 797.15 703.79C811.717 734.082 823.675 765.657 832.8 798.044C838.738 819.14 843.663 840.549 847.059 862.207C847.988 868.378 839.992 871.644 836.496 866.478C827.196 852.736 817.763 839.274 807.213 826.444C797.488 814.619 787.238 803.232 776.763 792.065C732.605 744.994 680.717 705.261 623.938 674.619C564.592 642.619 501.521 622.853 433.75 621.649C415.655 621.299 397.592 622.307 379.575 624.094C346.755 627.553 314.521 634.461 282.829 643.59C282.596 643.632 282.405 643.707 282.171 643.786C282.092 643.786 282.05 643.786 282.013 643.824C281.442 643.99 280.884 644.065 280.342 644.065C276.038 644.065 272.996 639.203 275.413 635.199ZM403.242 379.928C403.242 381.794 403.434 383.607 403.767 385.374C420.8 389.378 437.53 394.086 453.905 399.519C458.621 394.344 461.517 387.482 461.517 379.928C461.517 363.836 448.475 350.79 432.38 350.79C416.288 350.79 403.242 363.836 403.242 379.928Z" fill="#2E0E2E"/>
</g>
</svg>
