<svg width="167" height="173" viewBox="0 0 167 173" fill="none" xmlns="http://www.w3.org/2000/svg">
<path d="M97.801 65.8943C88.1218 65.8943 78.951 71.6943 75.1468 81.2151C70.1635 93.6943 76.2552 107.898 88.7302 112.882C94.7718 115.298 101.397 115.215 107.376 112.648C113.355 110.086 117.98 105.344 120.397 99.3026C122.809 93.2609 122.73 86.6359 120.164 80.6568C117.601 74.6734 112.859 70.0484 106.814 67.6359C103.859 66.4526 100.805 65.8943 97.801 65.8943ZM97.7802 120.503C93.9802 120.503 90.1843 119.778 86.5552 118.332C71.076 112.144 63.5135 94.5193 69.701 79.0401C75.8885 63.5609 93.5177 56.0068 108.993 62.1901C116.489 65.1859 122.372 70.9234 125.555 78.3443C128.739 85.7651 128.839 93.9818 125.843 101.478C122.847 108.978 117.109 114.857 109.689 118.04C105.859 119.682 101.822 120.503 97.7802 120.503Z" fill="black"/>
<path d="M20.7918 86.47C14.8709 86.47 9.25842 90.02 6.93342 95.845C5.45425 99.5408 5.50425 103.591 7.07509 107.253C8.64175 110.912 11.5418 113.737 15.2418 115.216C18.9334 116.691 22.9876 116.641 26.6501 115.074C30.3084 113.503 33.1334 110.603 34.6126 106.907C36.0918 103.212 36.0418 99.1617 34.4709 95.4992C32.9001 91.8408 30.0001 89.0117 26.3043 87.5367C24.5001 86.8117 22.6293 86.47 20.7918 86.47ZM20.7751 122.157C18.1668 122.157 15.5584 121.662 13.0626 120.662C2.42925 116.412 -2.76658 104.303 1.48342 93.67C5.73342 83.0325 17.8418 77.8325 28.4834 82.0867C33.6334 84.1492 37.6751 88.0908 39.8626 93.1908C42.0501 98.2867 42.1168 103.932 40.0584 109.082C38.0001 114.237 34.0584 118.278 28.9584 120.462C26.3293 121.591 23.5543 122.157 20.7751 122.157Z" fill="black"/>
<path d="M145.894 136.471C143.898 136.471 141.907 136.875 140.019 137.687C136.361 139.254 133.532 142.154 132.057 145.85C129.003 153.483 132.732 162.171 140.365 165.225C147.994 168.275 156.686 164.546 159.736 156.917C161.215 153.221 161.165 149.167 159.594 145.508C158.028 141.85 155.123 139.021 151.428 137.546C149.636 136.829 147.765 136.471 145.894 136.471ZM145.869 172.154C143.307 172.154 140.707 171.679 138.186 170.671C127.553 166.421 122.361 154.308 126.611 143.675C128.669 138.521 132.611 134.479 137.707 132.296C142.807 130.108 148.457 130.042 153.603 132.096C164.24 136.346 169.432 148.454 165.186 159.092C161.94 167.208 154.119 172.154 145.869 172.154Z" fill="black"/>
<path d="M125.536 5.8672C123.545 5.8672 121.553 6.27136 119.661 7.08386C116.003 8.65053 113.178 11.5547 111.699 15.2505C110.22 18.9464 110.27 22.9964 111.841 26.6589C113.411 30.3172 116.311 33.1464 120.007 34.6214C127.641 37.6714 136.328 33.9422 139.378 26.313C140.857 22.6172 140.807 18.5672 139.236 14.9047C137.67 11.2464 134.77 8.4172 131.07 6.9422C129.282 6.22553 127.407 5.8672 125.536 5.8672ZM125.511 41.5505C122.949 41.5505 120.353 41.0755 117.828 40.0672C112.678 38.0089 108.636 34.0672 106.453 28.9672C104.261 23.8714 104.195 18.2255 106.253 13.0755C108.311 7.92136 112.253 3.8797 117.353 1.6922C122.449 -0.495303 128.099 -0.56197 133.249 1.4922C138.399 3.55053 142.441 7.49636 144.628 12.5922C146.816 17.6922 146.886 23.338 144.828 28.488C141.582 36.6047 133.761 41.5505 125.511 41.5505Z" fill="black"/>
<path d="M38.4092 101.761C36.9758 101.761 35.7217 100.711 35.5133 99.2486C35.28 97.6445 36.3925 96.157 37.9925 95.9278L70.355 91.2528C71.9633 91.032 73.4467 92.132 73.6758 93.7361C73.9092 95.3403 72.7967 96.8278 71.1925 97.057L38.8342 101.732C38.6883 101.753 38.5508 101.761 38.4092 101.761Z" fill="black"/>
<path d="M107.902 67.8465C107.539 67.8465 107.172 67.7757 106.814 67.634C105.31 67.034 104.581 65.3299 105.181 63.8257L116.197 36.259C116.797 34.7549 118.502 34.0215 120.01 34.6215C121.514 35.2215 122.243 36.9299 121.643 38.434L110.627 66.0007C110.168 67.1465 109.064 67.8465 107.902 67.8465Z" fill="black"/>
<path d="M134.872 140.311C134.005 140.311 133.147 139.928 132.568 139.19L112.343 113.503C111.338 112.232 111.559 110.39 112.834 109.386C114.105 108.382 115.947 108.607 116.951 109.878L137.176 135.565C138.176 136.836 137.959 138.678 136.684 139.682C136.147 140.107 135.509 140.311 134.872 140.311Z" fill="black"/>
</svg>
