<svg width="201" height="215" viewBox="0 0 201 215" fill="none" xmlns="http://www.w3.org/2000/svg">
<path d="M139.958 214.231H3.59999C1.60833 214.231 0 212.619 0 210.631V43.973C0 41.9855 1.60833 40.373 3.59999 40.373H22.0417C24.0292 40.373 25.6417 41.9855 25.6417 43.973C25.6417 45.9605 24.0292 47.5689 22.0417 47.5689H7.19583V207.036H136.358V163.915C136.358 161.931 137.971 160.319 139.958 160.319C141.946 160.319 143.554 161.931 143.554 163.915V210.631C143.554 212.619 141.946 214.231 139.958 214.231Z" fill="#1A1A1A"/>
<path d="M39.2379 41.5417C36.6462 41.5417 34.5337 43.65 34.5337 46.2458V57.3583C34.5337 59.95 36.6462 62.0625 39.2379 62.0625H104.321C106.913 62.0625 109.025 59.95 109.025 57.3583V46.2458C109.025 43.65 106.913 41.5417 104.321 41.5417H98.6587C97.5546 41.5417 96.5087 41.0333 95.8296 40.1667C95.1462 39.2917 94.9004 38.1583 95.1671 37.0833C95.6504 35.1208 95.8962 33.175 95.8962 31.3125C95.8962 18.0125 85.0796 7.19583 71.7796 7.19583C58.4837 7.19583 47.6629 18.0125 47.6629 31.3125C47.6629 33.175 47.9087 35.1208 48.3879 37.0833C48.6546 38.1583 48.4087 39.2917 47.7296 40.1667C47.0462 41.0333 46.0046 41.5417 44.8962 41.5417H39.2379ZM104.321 69.2542H39.2379C32.6754 69.2542 27.3379 63.9167 27.3379 57.3583V46.2458C27.3379 39.6833 32.6754 34.3458 39.2379 34.3458H40.6254C40.5212 33.325 40.4671 32.3125 40.4671 31.3125C40.4671 14.0458 54.5129 0 71.7796 0C89.0462 0 103.092 14.0458 103.092 31.3125C103.092 32.3125 103.038 33.325 102.934 34.3458H104.321C110.884 34.3458 116.221 39.6833 116.221 46.2458V57.3583C116.221 63.9167 110.884 69.2542 104.321 69.2542Z" fill="#1A1A1A"/>
<path d="M92.7746 162.952L89.9955 177.264L104.308 174.489L173.641 105.16L162.104 93.6224L92.7746 162.952ZM85.4496 185.41C84.5038 185.41 83.5871 185.035 82.9038 184.356C82.058 183.51 81.6913 182.297 81.9205 181.127L85.9205 160.502C86.058 159.797 86.3996 159.152 86.908 158.643L159.558 85.9891C160.908 84.6391 163.295 84.6391 164.645 85.9891L181.27 102.614C182.675 104.018 182.675 106.297 181.27 107.702L108.62 180.352C108.112 180.86 107.466 181.206 106.762 181.343L86.1371 185.343C85.908 185.389 85.6788 185.41 85.4496 185.41Z" fill="#1A1A1A"/>
<path d="M175.502 80.2224L187.039 91.7599L191.802 86.9932L180.264 75.4599L175.502 80.2224ZM187.039 100.443C186.118 100.443 185.198 100.093 184.493 99.3891L167.868 82.7682C167.198 82.0932 166.818 81.1766 166.818 80.2224C166.818 79.2682 167.198 78.3557 167.868 77.6807L177.723 67.8266C179.127 66.4224 181.406 66.4224 182.81 67.8266L199.435 84.4516C200.106 85.1266 200.489 86.0391 200.489 86.9932C200.489 87.9474 200.106 88.8641 199.435 89.5391L189.581 99.3891C188.881 100.093 187.96 100.443 187.039 100.443Z" fill="#1A1A1A"/>
<path d="M140.415 130.443C139.495 130.443 138.574 130.093 137.87 129.389C136.465 127.985 136.465 125.705 137.87 124.301L167.87 94.3012C169.278 92.897 171.553 92.897 172.957 94.3012C174.365 95.7053 174.365 97.9845 172.957 99.3887L142.961 129.389C142.257 130.093 141.336 130.443 140.415 130.443Z" fill="#1A1A1A"/>
<path d="M106.076 181.405C105.155 181.405 104.234 181.055 103.53 180.351L86.9047 163.73C85.5005 162.322 85.5005 160.047 86.9047 158.643C88.313 157.239 90.588 157.239 91.9922 158.643L108.617 175.264C110.026 176.668 110.026 178.947 108.617 180.351C107.917 181.055 106.996 181.405 106.076 181.405Z" fill="#1A1A1A"/>
<path d="M28.0823 121.553C27.1281 121.553 26.2115 121.174 25.5365 120.499L19.4281 114.391C18.024 112.982 18.024 110.707 19.4281 109.303C20.8323 107.899 23.1115 107.899 24.5156 109.303L28.0823 112.87L45.1781 95.7699C46.5823 94.3658 48.8615 94.3658 50.2656 95.7699C51.6698 97.1783 51.6698 99.4533 50.2656 100.857L30.624 120.499C29.9531 121.174 29.0365 121.553 28.0823 121.553Z" fill="#1A1A1A"/>
<path d="M28.0823 153.918C27.1281 153.918 26.2115 153.539 25.5365 152.864L19.4281 146.756C18.024 145.348 18.024 143.073 19.4281 141.668C20.8323 140.264 23.1115 140.264 24.5156 141.668L28.0823 145.235L45.1781 128.135C46.5823 126.731 48.8615 126.731 50.2656 128.135C51.6698 129.539 51.6698 131.818 50.2656 133.223L30.624 152.864C29.9531 153.539 29.0365 153.918 28.0823 153.918Z" fill="#1A1A1A"/>
<path d="M28.0823 186.282C27.1281 186.282 26.2115 185.903 25.5365 185.228L19.4281 179.119C18.024 177.711 18.024 175.436 19.4281 174.032C20.8323 172.628 23.1115 172.628 24.5156 174.032L28.0823 177.598L45.1781 160.498C46.5823 159.094 48.8615 159.094 50.2656 160.498C51.6698 161.907 51.6698 164.182 50.2656 165.586L30.624 185.228C29.9531 185.903 29.0365 186.282 28.0823 186.282Z" fill="#1A1A1A"/>
</svg>
