<svg width="212" height="212" viewBox="0 0 212 212" fill="none" xmlns="http://www.w3.org/2000/svg">
<path d="M55.747 155.841H155.78V55.8032H55.747V155.841ZM159.047 162.383H52.4761C50.6677 162.383 49.2051 160.92 49.2051 159.112V52.5327C49.2051 50.7244 50.6677 49.2617 52.4761 49.2617H159.047C160.855 49.2617 162.317 50.7244 162.317 52.5327V159.112C162.317 160.92 160.855 162.383 159.047 162.383Z" fill="#1A1A1A"/>
<path d="M40.0332 31.0085C35.0249 31.0085 30.9499 35.0835 30.9499 40.096V171.55C30.9499 176.558 35.0249 180.638 40.0332 180.638H171.487C176.496 180.638 180.575 176.558 180.575 171.55V40.096C180.575 35.0835 176.496 31.0085 171.487 31.0085H40.0332ZM171.487 187.179H40.0332C31.4165 187.179 24.4082 180.167 24.4082 171.55V40.096C24.4082 31.4793 31.4165 24.4668 40.0332 24.4668H171.487C180.104 24.4668 187.117 31.4793 187.117 40.096V171.55C187.117 180.167 180.104 187.179 171.487 187.179Z" fill="#1A1A1A"/>
<path d="M52.472 31.0083C50.6678 31.0083 49.2012 29.5458 49.2012 27.7375V3.27083C49.2012 1.4625 50.6678 0 52.472 0C54.2803 0 55.7428 1.4625 55.7428 3.27083V27.7375C55.7428 29.5458 54.2803 31.0083 52.472 31.0083Z" fill="#1A1A1A"/>
<path d="M52.472 211.64C50.6678 211.64 49.2012 210.177 49.2012 208.369V183.907C49.2012 182.098 50.6678 180.636 52.472 180.636C54.2803 180.636 55.7428 182.098 55.7428 183.907V208.369C55.7428 210.177 54.2803 211.64 52.472 211.64Z" fill="#1A1A1A"/>
<path d="M73.8118 31.0083C72.0077 31.0083 70.541 29.5458 70.541 27.7375V3.27083C70.541 1.4625 72.0077 0 73.8118 0C75.6202 0 77.0827 1.4625 77.0827 3.27083V27.7375C77.0827 29.5458 75.6202 31.0083 73.8118 31.0083Z" fill="#1A1A1A"/>
<path d="M73.8118 211.64C72.0077 211.64 70.541 210.177 70.541 208.369V183.907C70.541 182.098 72.0077 180.636 73.8118 180.636C75.6202 180.636 77.0827 182.098 77.0827 183.907V208.369C77.0827 210.177 75.6202 211.64 73.8118 211.64Z" fill="#1A1A1A"/>
<path d="M95.1517 31.0083C93.3434 31.0083 91.8809 29.5458 91.8809 27.7375V3.27083C91.8809 1.4625 93.3434 0 95.1517 0C96.9559 0 98.4225 1.4625 98.4225 3.27083V27.7375C98.4225 29.5458 96.9559 31.0083 95.1517 31.0083Z" fill="#1A1A1A"/>
<path d="M95.1517 211.64C93.3434 211.64 91.8809 210.177 91.8809 208.369V183.907C91.8809 182.098 93.3434 180.636 95.1517 180.636C96.9559 180.636 98.4225 182.098 98.4225 183.907V208.369C98.4225 210.177 96.9559 211.64 95.1517 211.64Z" fill="#1A1A1A"/>
<path d="M116.492 31.0083C114.683 31.0083 113.221 29.5458 113.221 27.7375V3.27083C113.221 1.4625 114.683 0 116.492 0C118.296 0 119.762 1.4625 119.762 3.27083V27.7375C119.762 29.5458 118.296 31.0083 116.492 31.0083Z" fill="#1A1A1A"/>
<path d="M116.492 211.64C114.683 211.64 113.221 210.177 113.221 208.369V183.907C113.221 182.098 114.683 180.636 116.492 180.636C118.296 180.636 119.762 182.098 119.762 183.907V208.369C119.762 210.177 118.296 211.64 116.492 211.64Z" fill="#1A1A1A"/>
<path d="M137.829 31.0083C136.021 31.0083 134.559 29.5458 134.559 27.7375V3.27083C134.559 1.4625 136.021 0 137.829 0C139.634 0 141.1 1.4625 141.1 3.27083V27.7375C141.1 29.5458 139.634 31.0083 137.829 31.0083Z" fill="#1A1A1A"/>
<path d="M137.829 211.64C136.021 211.64 134.559 210.177 134.559 208.369V183.907C134.559 182.098 136.021 180.636 137.829 180.636C139.634 180.636 141.1 182.098 141.1 183.907V208.369C141.1 210.177 139.634 211.64 137.829 211.64Z" fill="#1A1A1A"/>
<path d="M159.167 31.0083C157.359 31.0083 155.896 29.5458 155.896 27.7375V3.27083C155.896 1.4625 157.359 0 159.167 0C160.976 0 162.438 1.4625 162.438 3.27083V27.7375C162.438 29.5458 160.976 31.0083 159.167 31.0083Z" fill="#1A1A1A"/>
<path d="M159.167 211.64C157.359 211.64 155.896 210.177 155.896 208.369V183.907C155.896 182.098 157.359 180.636 159.167 180.636C160.976 180.636 162.438 182.098 162.438 183.907V208.369C162.438 210.177 160.976 211.64 159.167 211.64Z" fill="#1A1A1A"/>
<path d="M208.372 55.7448H183.906C182.097 55.7448 180.635 54.2823 180.635 52.474C180.635 50.6656 182.097 49.2031 183.906 49.2031H208.372C210.181 49.2031 211.643 50.6656 211.643 52.474C211.643 54.2823 210.181 55.7448 208.372 55.7448Z" fill="#1A1A1A"/>
<path d="M27.7375 55.7448H3.27083C1.46667 55.7448 0 54.2823 0 52.474C0 50.6656 1.46667 49.2031 3.27083 49.2031H27.7375C29.5458 49.2031 31.0083 50.6656 31.0083 52.474C31.0083 54.2823 29.5458 55.7448 27.7375 55.7448Z" fill="#1A1A1A"/>
<path d="M208.372 77.0827H183.906C182.097 77.0827 180.635 75.6202 180.635 73.8118C180.635 72.0035 182.097 70.541 183.906 70.541H208.372C210.181 70.541 211.643 72.0035 211.643 73.8118C211.643 75.6202 210.181 77.0827 208.372 77.0827Z" fill="#1A1A1A"/>
<path d="M27.7375 77.0827H3.27083C1.46667 77.0827 0 75.6202 0 73.8118C0 72.0035 1.46667 70.541 3.27083 70.541H27.7375C29.5458 70.541 31.0083 72.0035 31.0083 73.8118C31.0083 75.6202 29.5458 77.0827 27.7375 77.0827Z" fill="#1A1A1A"/>
<path d="M208.372 98.4216H183.906C182.097 98.4216 180.635 96.959 180.635 95.1507C180.635 93.3424 182.097 91.8799 183.906 91.8799H208.372C210.181 91.8799 211.643 93.3424 211.643 95.1507C211.643 96.959 210.181 98.4216 208.372 98.4216Z" fill="#1A1A1A"/>
<path d="M27.7375 98.4216H3.27083C1.46667 98.4216 0 96.959 0 95.1507C0 93.3424 1.46667 91.8799 3.27083 91.8799H27.7375C29.5458 91.8799 31.0083 93.3424 31.0083 95.1507C31.0083 96.959 29.5458 98.4216 27.7375 98.4216Z" fill="#1A1A1A"/>
<path d="M208.372 119.761H183.906C182.097 119.761 180.635 118.299 180.635 116.491C180.635 114.682 182.097 113.22 183.906 113.22H208.372C210.181 113.22 211.643 114.682 211.643 116.491C211.643 118.299 210.181 119.761 208.372 119.761Z" fill="#1A1A1A"/>
<path d="M27.7375 119.761H3.27083C1.46667 119.761 0 118.299 0 116.491C0 114.682 1.46667 113.22 3.27083 113.22H27.7375C29.5458 113.22 31.0083 114.682 31.0083 116.491C31.0083 118.299 29.5458 119.761 27.7375 119.761Z" fill="#1A1A1A"/>
<path d="M208.372 141.102H183.906C182.097 141.102 180.635 139.64 180.635 137.831C180.635 136.023 182.097 134.561 183.906 134.561H208.372C210.181 134.561 211.643 136.023 211.643 137.831C211.643 139.64 210.181 141.102 208.372 141.102Z" fill="#1A1A1A"/>
<path d="M27.7375 141.102H3.27083C1.46667 141.102 0 139.64 0 137.831C0 136.023 1.46667 134.561 3.27083 134.561H27.7375C29.5458 134.561 31.0083 136.023 31.0083 137.831C31.0083 139.64 29.5458 141.102 27.7375 141.102Z" fill="#1A1A1A"/>
<path d="M208.372 162.438H183.906C182.097 162.438 180.635 160.976 180.635 159.167C180.635 157.359 182.097 155.896 183.906 155.896H208.372C210.181 155.896 211.643 157.359 211.643 159.167C211.643 160.976 210.181 162.438 208.372 162.438Z" fill="#1A1A1A"/>
<path d="M27.7375 162.438H3.27083C1.46667 162.438 0 160.976 0 159.167C0 157.359 1.46667 155.896 3.27083 155.896H27.7375C29.5458 155.896 31.0083 157.359 31.0083 159.167C31.0083 160.976 29.5458 162.438 27.7375 162.438Z" fill="#1A1A1A"/>
</svg>
