<svg width="212" height="212" viewBox="0 0 212 212" fill="none" xmlns="http://www.w3.org/2000/svg">
<path d="M55.9852 103.883C63.3061 106.521 76.4186 112.425 87.8186 123.821C99.2102 135.221 105.119 148.333 107.756 155.654C189.36 100.821 201.131 27.6458 202.819 8.82083C183.994 10.5042 110.819 22.2792 55.9852 103.883ZM105.377 166.596C104.839 166.596 104.302 166.492 103.789 166.288C102.506 165.775 101.552 164.671 101.227 163.329C101.181 163.142 96.5394 144.621 81.7811 129.858C66.9352 115.017 48.5019 110.458 48.3186 110.417C46.9686 110.092 45.8686 109.142 45.3519 107.858C44.8352 106.571 44.9727 105.121 45.7186 103.958C111.639 1.31667 206.414 0 207.364 0C208.498 0 209.585 0.449997 210.389 1.25C211.189 2.05416 211.639 3.14167 211.639 4.275C211.639 5.225 210.314 99.9958 107.681 165.921C106.985 166.367 106.185 166.592 105.377 166.596Z" fill="#1A1A1A"/>
<path d="M4.26942 95.8085C2.88609 95.8085 1.56525 95.1335 0.756919 93.9668C-0.201415 92.5752 -0.255581 90.7502 0.627752 89.3127C36.1944 31.146 96.3361 47.2627 96.9444 47.4293C99.2111 48.0668 100.532 50.421 99.8986 52.6877C99.2653 54.9585 96.8903 56.3002 94.6444 55.6543C92.5528 55.0752 45.7361 42.7252 13.4653 85.5752C33.3444 82.3293 58.9861 79.7585 64.3694 86.9627C65.7861 88.8502 65.3986 91.521 63.5069 92.9335C61.6194 94.3543 58.9444 93.9585 57.5319 92.0752C54.1569 89.4085 30.0611 91.0085 5.06109 95.7335C4.79859 95.7835 4.53192 95.8085 4.26942 95.8085Z" fill="#1A1A1A"/>
<path d="M120.102 211.64C119.252 211.64 118.406 211.386 117.673 210.886C116.285 209.923 115.594 208.236 115.906 206.578C120.631 181.573 122.24 157.486 119.419 153.973C117.527 152.565 117.215 149.957 118.623 148.065C120.04 146.178 122.79 145.853 124.677 147.269C131.877 152.648 129.315 178.282 126.065 198.157C169.015 165.653 156.131 117.515 155.985 116.998C155.348 114.728 156.673 112.373 158.944 111.736C161.223 111.111 163.569 112.419 164.21 114.69C164.377 115.294 180.485 175.44 122.327 211.015C121.644 211.432 120.873 211.64 120.102 211.64Z" fill="#1A1A1A"/>
<path d="M188.764 75.9505C186.401 75.9505 184.493 74.0422 184.493 71.6797C184.493 57.3172 180.451 46.188 172.484 38.6005C159.593 26.3338 140.359 27.113 140.184 27.1421C137.693 27.1838 135.826 25.4463 135.701 23.1005C135.58 20.7463 137.38 18.7421 139.73 18.613C140.697 18.588 162.709 17.5713 178.301 32.3546C188.076 41.6171 193.034 54.8505 193.034 71.6797C193.034 74.0422 191.122 75.9505 188.764 75.9505Z" fill="#1A1A1A"/>
<path d="M127.945 66.2482C123.474 66.2482 119.003 67.9482 115.603 71.3523C108.803 78.1565 108.803 89.2357 115.603 96.0398C122.407 102.844 133.482 102.844 140.286 96.0398C143.582 92.7398 145.395 88.3607 145.395 83.694C145.395 79.0315 143.582 74.6482 140.286 71.3523C136.886 67.9482 132.416 66.2482 127.945 66.2482ZM127.945 109.677C121.291 109.677 114.636 107.14 109.566 102.077C99.4365 91.9398 99.4365 75.4482 109.566 65.3148C119.695 55.1857 136.186 55.1773 146.324 65.3148C151.236 70.2273 153.936 76.7523 153.936 83.694C153.936 90.6398 151.236 97.1648 146.324 102.077C141.257 107.14 134.603 109.677 127.945 109.677Z" fill="#1A1A1A"/>
<path d="M30.1448 185.762C29.0531 185.762 27.9615 185.346 27.1281 184.512C25.4573 182.841 25.4573 180.141 27.1281 178.475L70.349 135.254C72.0198 133.587 74.7198 133.587 76.3865 135.254C78.0531 136.921 78.0531 139.625 76.3865 141.291L33.1656 184.512C32.3281 185.346 31.2365 185.762 30.1448 185.762Z" fill="#1A1A1A"/>
<path d="M64.2698 182.359C63.1781 182.359 62.0865 181.942 61.2531 181.109C59.5823 179.442 59.5823 176.738 61.2531 175.071L84.2323 152.088C85.9031 150.421 88.6031 150.421 90.2698 152.088C91.9365 153.759 91.9365 156.459 90.2698 158.13L67.2906 181.109C66.4531 181.942 65.3615 182.359 64.2698 182.359Z" fill="#1A1A1A"/>
<path d="M33.5521 151.64C32.4604 151.64 31.3688 151.223 30.5313 150.39C28.8646 148.723 28.8646 146.019 30.5313 144.352L53.5146 121.369C55.1813 119.702 57.8854 119.702 59.5521 121.369C61.2188 123.04 61.2188 125.74 59.5521 127.407L36.5688 150.39C35.7354 151.223 34.6438 151.64 33.5521 151.64Z" fill="#1A1A1A"/>
</svg>
