<svg width="495" height="507" viewBox="0 0 495 507" fill="none" xmlns="http://www.w3.org/2000/svg">
<path d="M29.6115 493.598C24.599 493.598 19.849 491.419 16.5823 487.615C13.3573 483.869 11.9365 478.881 12.6865 473.923C15.274 457.427 18.9948 440.665 24.0782 422.611C31.3198 396.911 40.8865 371.615 52.5157 347.419C67.6948 315.852 86.3323 286.069 107.92 258.911C112.703 252.919 117.141 247.577 121.499 242.552C151.228 208.061 184.991 178.54 222.057 154.598C213.037 152.34 204.082 149.536 195.27 146.198C170.374 136.773 146.716 122.552 126.853 105.069C112.724 92.6272 100.42 79.0939 90.2907 64.8439C87.1323 60.398 86.0657 54.8231 87.3657 49.5481C88.6657 44.2689 92.199 39.823 97.0573 37.3522C113.907 28.7855 132.037 22.298 150.941 18.0689C158.857 16.2897 167.103 14.9064 175.441 13.9647C183.949 12.9897 192.632 12.498 201.232 12.498C214.77 12.498 228.395 13.7105 241.72 16.098C252.878 18.0939 263.774 20.8897 274.112 24.4105C285.774 28.2522 297.391 33.2189 308.507 39.1272C311.378 40.6189 314.374 42.2772 317.545 44.1314C339.082 44.9605 360.407 48.8147 380.978 55.5939C399.199 61.6064 416.645 69.8856 432.824 80.2022C435.316 81.7981 437.72 83.4189 440.107 85.0606C448.099 90.5731 455.912 96.773 463.32 103.477C474.537 113.623 476.541 130.727 467.97 143.265C461.716 152.411 454.612 161.419 447.97 168.644C438.307 179.136 428.832 187.952 418.991 195.59C411.899 201.098 404.891 205.748 398.074 209.481C399.607 210.452 401.07 211.415 402.478 212.373C435.22 234.506 458.957 259.415 479.412 293.115C482.595 298.386 482.695 304.965 479.691 310.294C476.67 315.648 471.012 318.977 464.92 318.986C463.999 318.986 463.087 318.911 462.182 318.765H461.412L459.512 318.127C433.624 310.673 409.766 305.856 386.574 303.411C373.799 302.152 362.274 301.531 351.424 301.531C349.645 301.531 347.862 301.548 346.078 301.581C298.445 302.427 252.028 315.386 204.153 341.202C160.853 364.569 122.016 394.411 88.724 429.906C79.5532 439.681 72.2157 447.965 65.6282 455.977C57.5323 465.819 50.2532 476.277 43.5948 486.115C40.424 490.798 35.199 493.598 29.6115 493.598Z" fill="white"/>
<path d="M201.237 0C192.158 0 182.999 0.520813 174.016 1.54165C165.253 2.53331 156.553 3.99165 148.178 5.87915C128.299 10.325 109.178 17.1667 91.3908 26.2125C83.2908 30.3292 77.395 37.7458 75.2283 46.5583C73.0575 55.3708 74.8325 64.6708 80.0992 72.0833C90.7867 87.1167 103.737 101.367 118.595 114.45C139.57 132.917 164.553 147.933 190.841 157.888C191.778 158.242 192.72 158.592 193.662 158.937C164.003 180.546 136.658 205.812 112.003 234.417C107.608 239.487 103.066 244.958 98.1742 251.079C75.9742 279.013 56.8367 309.587 41.2492 342.004C29.3117 366.838 19.4825 392.817 12.045 419.213C6.82417 437.763 2.99916 455 0.344988 471.917C-0.967512 480.621 1.50333 489.263 7.10333 495.771C12.7533 502.333 20.9533 506.096 29.6117 506.096C39.3533 506.096 48.4492 501.246 53.9492 493.117C60.4283 483.542 67.4992 473.375 75.2783 463.917C81.6742 456.138 88.8408 448.046 97.8408 438.454C130.216 403.946 167.983 374.925 210.091 352.2C256.162 327.358 300.708 314.888 346.278 314.079C348.016 314.046 349.712 314.029 351.408 314.029C361.866 314.029 372.991 314.629 385.416 315.858C407.691 318.208 430.812 322.871 455.953 330.108L459.37 331.263H461.316C462.508 331.408 463.703 331.483 464.899 331.483C475.512 331.475 485.341 325.712 490.574 316.437C495.791 307.183 495.624 295.783 490.128 286.683C471.353 255.746 449.078 231.096 420.658 209.942C422.653 208.512 424.658 207.017 426.662 205.463C437.058 197.388 447.033 188.117 457.162 177.112C464.191 169.475 471.691 159.962 478.283 150.329C490.366 132.65 487.537 108.525 471.703 94.2042C463.862 87.1125 455.616 80.5708 447.195 74.7667C444.366 72.8125 441.945 71.2 439.591 69.6917C422.474 58.7792 404.087 50.0542 384.891 43.725C364.22 36.9042 342.808 32.8958 321.153 31.7833C318.816 30.4583 316.537 29.2167 314.278 28.0417C302.612 21.8458 290.42 16.6291 278.028 12.5375C267.141 8.83748 255.666 5.89582 243.916 3.79165C229.87 1.27498 215.508 0 201.237 0ZM201.233 25C214.058 25 226.883 26.1375 239.516 28.4041C249.945 30.2666 260.166 32.8625 270.083 36.2417C281.328 39.9458 292.208 44.6167 302.637 50.1667C306.466 52.1542 310.233 54.2958 313.941 56.525C335.378 57.0416 356.699 60.75 377.062 67.4666C394.333 73.1625 410.824 81 426.103 90.7417C428.453 92.2458 430.741 93.7875 433.008 95.35C440.724 100.671 448.003 106.475 454.933 112.746C461.595 118.775 462.72 128.796 457.649 136.212C451.499 145.204 444.77 153.663 438.77 160.183C430.295 169.388 421.208 178.042 411.324 185.717C402.874 192.279 394.212 197.8 385.774 201.696C383.016 202.967 379.928 205.375 379.924 208.717C379.745 211.221 380.828 213.788 383.603 215.35C387.641 217.675 391.591 220.083 395.449 222.704C426.433 243.654 449.224 267.471 468.728 299.6C470.603 302.708 468.241 306.479 464.899 306.483C464.483 306.483 464.045 306.425 463.603 306.296C463.574 306.263 463.541 306.263 463.483 306.263C463.299 306.204 463.153 306.146 462.97 306.113C438.374 299.029 413.353 293.663 387.883 290.983C375.749 289.779 363.587 289.029 351.408 289.029C349.549 289.029 347.691 289.046 345.833 289.083C293.232 290.017 244.278 305.362 198.22 330.196C154.149 353.979 113.878 384.817 79.6033 421.35C71.4742 430.021 63.52 438.854 55.97 448.038C47.7825 457.992 40.4617 468.442 33.2408 479.108C32.3075 480.492 30.9533 481.096 29.6117 481.096C27.0658 481.096 24.57 478.929 25.045 475.792C27.6825 458.983 31.5033 442.367 36.1075 425.996C43.1908 400.854 52.4742 376.35 63.7783 352.838C78.4908 322.242 96.5742 293.271 117.703 266.683C122.016 261.292 126.42 255.954 130.941 250.738C164.066 212.308 202.653 179.721 246.541 154.25C246.578 154.229 246.612 154.208 246.649 154.188C250.045 152.208 249.053 147.117 245.166 146.521C229.612 144.142 214.328 140.046 199.691 134.504C176.112 125.579 154.045 112.35 135.112 95.6875C122.283 84.3875 110.437 71.6083 100.478 57.6C98.2742 54.5 99.3325 50.2208 102.72 48.4958C118.503 40.475 135.57 34.3167 153.67 30.2667C161.416 28.525 169.133 27.2542 176.849 26.3833C184.945 25.4583 193.091 25 201.233 25Z" fill="#2E0E2E"/>
<path d="M369.513 101.474C369.513 88.9824 359.388 78.8574 346.896 78.8574C334.404 78.8574 324.279 88.9824 324.279 101.474C324.279 107.337 326.529 112.662 330.188 116.678C342.9 112.462 355.883 108.807 369.104 105.699C369.363 104.328 369.513 102.92 369.513 101.474Z" fill="#2E0E2E"/>
</svg>
