<svg width="632" height="205" viewBox="0 0 632 205" fill="none" xmlns="http://www.w3.org/2000/svg">
<path d="M41.0625 99.1435C39.675 97.1352 37.8208 95.6602 35.5 94.7268C33.1792 93.7893 30.7333 93.3227 28.1708 93.3227C26.6458 93.3227 25.175 93.4977 23.7542 93.8435C22.3333 94.1893 21.05 94.7435 19.9083 95.506C18.7625 96.2685 17.8458 97.256 17.1542 98.4685C16.4583 99.681 16.1125 101.118 16.1125 102.781C16.1125 105.277 16.9792 107.185 18.7125 108.502C20.4417 109.818 22.5917 110.96 25.1583 111.931C27.7208 112.902 30.525 113.839 33.5792 114.735C36.625 115.639 39.4333 116.885 42 118.481C44.5625 120.077 46.7083 122.189 48.4417 124.823C50.175 127.456 51.0417 130.956 51.0417 135.323C51.0417 139.273 50.3167 142.718 48.8583 145.664C47.4042 148.61 45.4458 151.056 42.9875 152.993C40.525 154.935 37.6667 156.389 34.4083 157.36C31.15 158.331 27.7208 158.814 24.1167 158.814C19.5417 158.814 15.1417 158.052 10.9167 156.527C6.6875 155.006 3.05 152.439 0 148.835L9.875 139.273C11.4708 141.698 13.5667 143.585 16.1667 144.935C18.7625 146.289 21.5167 146.964 24.4292 146.964C25.9542 146.964 27.4792 146.756 29.0042 146.339C30.525 145.927 31.9125 145.302 33.1625 144.468C34.4083 143.639 35.4125 142.581 36.175 141.298C36.9375 140.018 37.3208 138.543 37.3208 136.881C37.3208 134.177 36.4542 132.098 34.7208 130.643C32.9875 129.189 30.8375 127.96 28.275 126.952C25.7125 125.948 22.9042 124.993 19.8542 124.093C16.8042 123.193 13.9958 121.964 11.4333 120.402C8.87083 118.843 6.72083 116.764 4.9875 114.164C3.25416 111.568 2.39166 108.085 2.39166 103.718C2.39166 99.906 3.17083 96.6143 4.72916 93.8435C6.2875 91.0727 8.33333 88.7643 10.8625 86.9268C13.3917 85.0935 16.2833 83.7227 19.5417 82.8227C22.8 81.9227 26.125 81.4727 29.525 81.4727C33.4042 81.4727 37.1625 82.0602 40.8042 83.2393C44.4417 84.4185 47.7167 86.356 50.625 89.0602L41.0625 99.1435Z" fill="white"/>
<path d="M104.891 156.945H93.0412V148.941H92.8329C91.6537 151.432 89.8496 153.603 87.4246 155.437C84.9996 157.274 81.7079 158.191 77.5496 158.191C74.2246 158.191 71.3996 157.653 69.0787 156.582C66.7537 155.507 64.8662 154.053 63.4121 152.216C61.9579 150.378 60.9162 148.282 60.2954 145.924C59.6704 143.57 59.3579 141.107 59.3579 138.545V107.045H71.8329V132.307C71.8329 133.695 71.8996 135.237 72.0412 136.932C72.1787 138.632 72.5412 140.224 73.1329 141.716C73.7204 143.207 74.6204 144.453 75.8371 145.457C77.0454 146.462 78.7621 146.966 80.9829 146.966C83.0621 146.966 84.8079 146.62 86.2287 145.924C87.6496 145.232 88.8287 144.299 89.7662 143.12C90.6996 141.941 91.3787 140.587 91.7912 139.062C92.2079 137.541 92.4162 135.945 92.4162 134.282V107.045H104.891V156.945Z" fill="white"/>
<path d="M116.95 107.045H129.425V114.945H129.633C131.016 112.036 132.991 109.782 135.558 108.186C138.121 106.595 141.066 105.799 144.396 105.799C145.158 105.799 145.904 105.865 146.629 106.003C147.358 106.145 148.1 106.315 148.866 106.524V118.586C147.825 118.307 146.8 118.082 145.8 117.907C144.791 117.736 143.804 117.649 142.833 117.649C139.925 117.649 137.587 118.186 135.816 119.261C134.05 120.336 132.7 121.565 131.762 122.949C130.829 124.336 130.204 125.724 129.891 127.107C129.579 128.495 129.425 129.536 129.425 130.228V156.945H116.95V107.045Z" fill="white"/>
<path d="M163.419 131.995C163.419 133.936 163.748 135.807 164.406 137.607C165.065 139.411 166.036 141.003 167.319 142.39C168.598 143.778 170.14 144.886 171.944 145.715C173.744 146.549 175.79 146.965 178.077 146.965C180.365 146.965 182.406 146.549 184.211 145.715C186.011 144.886 187.552 143.778 188.836 142.39C190.119 141.003 191.09 139.411 191.748 137.607C192.406 135.807 192.736 133.936 192.736 131.995C192.736 130.053 192.406 128.182 191.748 126.382C191.09 124.578 190.119 122.986 188.836 121.599C187.552 120.211 186.011 119.103 184.211 118.274C182.406 117.44 180.365 117.024 178.077 117.024C175.79 117.024 173.744 117.44 171.944 118.274C170.14 119.103 168.598 120.211 167.319 121.599C166.036 122.986 165.065 124.578 164.406 126.382C163.748 128.182 163.419 130.053 163.419 131.995ZM150.944 131.995C150.944 128.045 151.652 124.457 153.073 121.236C154.494 118.011 156.419 115.257 158.844 112.97C161.269 110.682 164.148 108.915 167.473 107.67C170.798 106.42 174.336 105.799 178.077 105.799C181.819 105.799 185.352 106.42 188.681 107.67C192.006 108.915 194.881 110.682 197.311 112.97C199.736 115.257 201.656 118.011 203.077 121.236C204.498 124.457 205.211 128.045 205.211 131.995C205.211 135.945 204.498 139.532 203.077 142.753C201.656 145.978 199.736 148.732 197.311 151.02C194.881 153.307 192.006 155.074 188.681 156.32C185.352 157.57 181.819 158.191 178.077 158.191C174.336 158.191 170.798 157.57 167.473 156.32C164.148 155.074 161.269 153.307 158.844 151.02C156.419 148.732 154.494 145.978 153.073 142.753C151.652 139.532 150.944 135.945 150.944 131.995Z" fill="white"/>
<path d="M238.475 117.026C236.254 117.026 234.246 117.389 232.446 118.118C230.641 118.847 229.1 119.851 227.821 121.13C226.537 122.414 225.533 123.976 224.804 125.809C224.075 127.647 223.712 129.676 223.712 131.893C223.712 133.901 224.075 135.776 224.804 137.505C225.533 139.239 226.554 140.764 227.871 142.08C229.187 143.397 230.746 144.439 232.55 145.197C234.35 145.964 236.291 146.343 238.371 146.343C240.658 146.343 242.721 145.964 244.558 145.197C246.391 144.439 247.95 143.414 249.233 142.13C250.516 140.851 251.504 139.309 252.196 137.505C252.887 135.705 253.237 133.764 253.237 131.684C253.237 127.318 251.921 123.784 249.287 121.08C246.654 118.376 243.05 117.026 238.475 117.026ZM265.087 107.047V152.476C265.087 156.98 264.533 161.051 263.425 164.689C262.316 168.33 260.6 171.414 258.279 173.943C255.958 176.472 253.029 178.43 249.496 179.818C245.958 181.201 241.766 181.897 236.916 181.897C232.271 181.897 227.871 181.305 223.712 180.13C219.554 178.951 215.708 176.801 212.175 173.684L219.658 163.497C222.154 165.78 224.754 167.547 227.454 168.797C230.158 170.043 233.279 170.668 236.812 170.668C239.791 170.668 242.304 170.251 244.35 169.422C246.391 168.589 248.021 167.447 249.233 165.989C250.446 164.534 251.312 162.784 251.833 160.739C252.354 158.693 252.612 156.426 252.612 153.93V150.293H252.404C250.604 152.718 248.212 154.539 245.233 155.751C242.25 156.964 239.204 157.568 236.083 157.568C232.341 157.568 228.946 156.893 225.896 155.543C222.846 154.189 220.229 152.372 218.046 150.084C215.862 147.797 214.183 145.093 213.004 141.976C211.825 138.859 211.237 135.53 211.237 131.997C211.237 128.322 211.791 124.893 212.9 121.705C214.008 118.518 215.637 115.743 217.787 113.389C219.933 111.034 222.516 109.176 225.533 107.826C228.546 106.476 231.996 105.797 235.875 105.797C239.412 105.797 242.7 106.493 245.754 107.876C248.8 109.264 251.225 111.48 253.029 114.53H253.237V107.047H265.087Z" fill="white"/>
<path d="M307.606 134.593H305.006C303.273 134.593 301.331 134.664 299.185 134.801C297.035 134.939 295.01 135.268 293.106 135.789C291.198 136.309 289.585 137.072 288.268 138.076C286.952 139.08 286.293 140.484 286.293 142.284C286.293 143.464 286.556 144.451 287.073 145.247C287.593 146.047 288.268 146.722 289.102 147.276C289.935 147.83 290.868 148.23 291.91 148.472C292.948 148.714 293.989 148.834 295.027 148.834C299.323 148.834 302.493 147.814 304.539 145.768C306.581 143.726 307.606 140.934 307.606 137.401V134.593ZM308.335 150.084H308.023C306.218 152.926 303.931 154.984 301.16 156.268C298.389 157.551 295.339 158.193 292.01 158.193C289.727 158.193 287.489 157.88 285.306 157.255C283.123 156.63 281.181 155.697 279.485 154.447C277.785 153.201 276.418 151.643 275.381 149.772C274.339 147.901 273.818 145.714 273.818 143.222C273.818 140.518 274.302 138.214 275.277 136.309C276.243 134.401 277.543 132.809 279.173 131.526C280.802 130.243 282.689 129.222 284.839 128.459C286.985 127.697 289.223 127.126 291.543 126.743C293.864 126.364 296.206 126.122 298.56 126.018C300.918 125.914 303.135 125.859 305.214 125.859H308.335V124.509C308.335 121.389 307.26 119.051 305.11 117.493C302.96 115.93 300.227 115.151 296.898 115.151C294.264 115.151 291.806 115.622 289.518 116.555C287.231 117.493 285.256 118.755 283.593 120.351L277.043 113.801C279.814 110.959 283.056 108.914 286.764 107.668C290.468 106.422 294.298 105.797 298.252 105.797C301.785 105.797 304.764 106.197 307.189 106.993C309.614 107.789 311.623 108.809 313.218 110.059C314.814 111.305 316.043 112.747 316.91 114.372C317.777 116.001 318.402 117.647 318.781 119.309C319.16 120.972 319.389 122.584 319.456 124.143C319.527 125.705 319.56 127.072 319.56 128.251V156.943H308.335V150.084Z" fill="white"/>
<path d="M326.109 117.648V107.044H336.401V92.5938H348.876V107.044H362.596V117.648H348.876V139.481C348.876 141.973 349.342 143.948 350.28 145.406C351.213 146.86 353.067 147.59 355.842 147.59C356.951 147.59 358.163 147.469 359.48 147.223C360.796 146.981 361.834 146.585 362.596 146.027V156.527C361.28 157.152 359.671 157.581 357.763 157.827C355.859 158.069 354.176 158.19 352.721 158.19C349.396 158.19 346.676 157.827 344.563 157.102C342.446 156.373 340.784 155.265 339.571 153.773C338.359 152.285 337.526 150.431 337.076 148.21C336.626 145.994 336.401 143.427 336.401 140.519V117.648H326.109Z" fill="white"/>
<path d="M405.843 127.005C405.773 123.334 404.631 120.439 402.414 118.326C400.193 116.214 397.11 115.155 393.16 115.155C389.418 115.155 386.456 116.23 384.273 118.376C382.089 120.526 380.756 123.401 380.268 127.005H405.843ZM380.268 136.364C380.685 140.105 382.139 143.014 384.635 145.093C387.131 147.172 390.148 148.214 393.681 148.214C396.798 148.214 399.414 147.572 401.531 146.289C403.643 145.009 405.498 143.397 407.089 141.455L416.031 148.214C413.123 151.818 409.864 154.384 406.26 155.905C402.656 157.43 398.877 158.193 394.927 158.193C391.185 158.193 387.652 157.568 384.323 156.322C380.998 155.076 378.123 153.305 375.698 151.022C373.268 148.734 371.348 145.976 369.927 142.755C368.506 139.534 367.793 135.947 367.793 131.997C367.793 128.047 368.506 124.459 369.927 121.234C371.348 118.014 373.268 115.259 375.698 112.972C378.123 110.684 380.998 108.918 384.323 107.668C387.652 106.422 391.185 105.797 394.927 105.797C398.393 105.797 401.564 106.405 404.439 107.618C407.314 108.83 409.777 110.58 411.823 112.868C413.864 115.155 415.46 117.98 416.602 121.339C417.748 124.701 418.318 128.564 418.318 132.93V136.364H380.268Z" fill="white"/>
<path d="M573.136 124.055H574.149C574.828 124.055 575.303 123.946 575.578 123.725C575.853 123.509 575.995 123.225 575.995 122.88C575.995 122.534 575.861 122.25 575.595 122.034C575.332 121.813 574.878 121.705 574.241 121.705H573.136V124.055ZM571.02 120.325H574.995C576.12 120.325 576.932 120.555 577.441 121.009C577.945 121.459 578.195 122.067 578.195 122.83C578.195 123.425 578.003 123.942 577.62 124.375C577.232 124.813 576.628 125.13 575.799 125.325C576.141 125.455 576.391 125.592 576.553 125.738C576.778 125.942 577.011 126.242 577.261 126.642C577.274 126.671 577.753 127.525 578.695 129.209H576.082C575.232 127.521 574.666 126.509 574.374 126.18C574.082 125.846 573.795 125.684 573.503 125.684C573.436 125.684 573.349 125.696 573.232 125.717V129.209H571.02V120.325ZM580.661 125.963C581.057 123.313 580.178 121.188 578.024 119.588C577.353 119.088 576.557 118.759 575.728 118.634C573.074 118.238 570.949 119.117 569.353 121.275C568.853 121.946 568.524 122.742 568.399 123.571C568.003 126.225 568.882 128.35 571.041 129.955C571.711 130.45 572.507 130.78 573.336 130.905C575.986 131.3 578.111 130.421 579.711 128.263C580.211 127.588 580.541 126.792 580.661 125.963ZM583.216 123.259C583.62 125.946 582.97 128.346 581.266 130.459C580.949 130.85 580.591 131.209 580.199 131.521C578.095 133.205 575.707 133.846 573.036 133.45C572.532 133.38 572.036 133.246 571.561 133.063C569.032 132.088 567.27 130.342 566.27 127.821C566.086 127.35 565.949 126.855 565.87 126.355C565.441 123.659 566.082 121.242 567.791 119.1C568.111 118.696 568.482 118.33 568.882 118.009C571.007 116.317 573.407 115.68 576.091 116.096C576.586 116.175 577.078 116.305 577.545 116.488C580.074 117.467 581.832 119.234 582.82 121.771C583.007 122.25 583.141 122.75 583.216 123.259Z" fill="white"/>
<path d="M481.681 16.6488C479.41 18.6185 477.813 21.2991 476.628 24.1296C473.82 30.5635 471.735 37.5713 470.624 44.4671C470.024 47.8215 469.562 51.2257 468.276 54.3305C467.977 55.1535 467.727 55.8393 467.29 56.6123C465.207 60.2032 461.415 62.0851 457.549 63.3185C449.031 65.8101 440.002 66.7178 431.198 67.8625C426.982 68.3476 417.155 69.7414 418.463 75.9645C419.135 80.0924 422.377 83.1361 425.493 85.6686C430.056 89.3487 434.857 92.8044 439.944 95.8986C443.123 97.8324 446.539 99.5419 449.569 101.887C452.649 104.095 455.104 107.164 455.739 110.968C456.237 113.013 455.489 115.07 454.067 116.417C451.31 119.296 448.914 122.463 446.656 125.68C444.386 129.358 442.664 133.236 441.079 137.164C439.993 139.72 442.736 142.427 445.305 141.342C446.24 140.906 447.126 140.607 448.011 140.308C451.977 138.8 456.104 141.545 456.639 145.623C456.838 148.491 457.274 151.135 457.759 153.642C458.519 157.957 463.132 159.791 466.974 156.064C471.914 151.027 475.033 145.017 480.509 140.642C484.9 137.114 491.373 133.412 497.346 134.499C502.908 135.436 508.22 137.059 513.419 139.417C522.546 143.36 531.361 148.588 539.228 154.713C555.237 167.064 567.952 183.342 576.177 201.713C577.784 205.405 583.172 204.259 583.236 200.244C584.305 169.567 573.414 138.886 553.556 115.349C548.595 109.349 543.159 103.798 537.013 98.9201C535.479 97.5853 534.32 96.0761 534.657 93.8689C535.257 88.8061 538.001 86.3876 541.581 83.8073C545.922 80.4166 550.263 77.0259 554.067 72.9742L554.117 72.837C556.4 70.4059 558.271 67.8251 560.006 65.1944C562.214 62.1148 561.13 57.8371 557.764 55.9905C557.764 55.9905 556.08 55.0672 555.257 54.7677C550.519 52.4218 545.582 50.6246 540.394 49.5132C535.531 48.3645 530.743 47.8643 525.754 47.9127C521.739 47.8492 517.574 48.1971 513.533 49.0564C510.191 49.7039 506.625 48.4059 504.48 45.7615C503.894 45.2376 503.496 44.6264 503.097 44.0153C502.075 42.5559 501.239 41.0093 500.217 39.55C497.961 35.9329 497.064 33.2764 495.182 29.4849C493.4 25.419 491.992 21.1786 489.599 17.5116C488.265 15.6282 486.994 14.8546 485.559 14.954C484.175 14.9162 482.866 15.5268 481.681 16.6488ZM452.267 129.897C457.495 121.082 463.769 114.511 472.375 108.79C473.411 108.08 474.446 107.369 475.618 106.708C476.417 106.222 476.666 105.537 476.592 104.888C476.617 103.965 475.756 103.342 475.121 102.955C472.702 101.919 470.295 100.422 468.039 98.5132C465.233 96.4049 462.802 94.1221 460.471 91.5649C458.813 89.7188 457.031 87.3614 455.298 84.8668C453.827 82.9334 454.227 80.1277 455.936 78.4197C457.919 76.8116 459.902 75.2035 462.023 73.6454C462.634 73.2465 463.245 72.8476 463.856 72.4487C468.135 69.6566 472.624 67.5629 477.376 66.0305C483.013 64.199 488.999 63.1158 494.823 62.9055C495.809 62.3322 496.931 61.8087 497.916 61.2354C500.822 59.6525 503.766 58.3939 506.934 57.3722C509.59 56.4751 512.471 55.8151 515.302 55.2921C520.964 54.2463 526.788 54.036 532.586 54.7485C534.706 54.8988 536.776 55.1862 538.883 55.7979C543.934 56.8594 548.597 58.5567 552.924 60.7528C553.971 61.2893 554.17 62.4491 553.546 63.3094C550.902 67.162 547.621 70.6278 543.978 73.8067C538.914 78.332 532.765 81.9965 526.28 84.4512C522.314 85.959 518.036 87.0427 513.721 87.8021C512.748 87.914 512.386 89.3356 513.296 89.8222C525.341 96.8466 536.038 105.866 545.213 116.506C546.422 117.878 547.719 119.437 548.928 120.809C554.637 128.168 559.635 136.201 563.748 144.532C566.802 151.08 569.344 157.753 571.324 164.687C572.632 169.201 573.616 173.754 574.413 178.393C574.562 179.69 572.878 180.475 572.081 179.253C570.174 176.384 568.129 173.465 565.848 170.771C563.791 168.313 561.597 165.806 559.353 163.436C549.978 153.345 538.757 144.912 526.7 138.349C513.958 131.536 500.591 127.292 486.1 126.989C482.222 126.975 478.293 127.098 474.403 127.546C467.456 128.28 460.535 129.799 453.788 131.693C453.788 131.693 453.788 131.693 453.601 131.78C453.463 131.73 453.414 131.867 453.276 131.817C452.354 131.792 451.643 130.757 452.267 129.897ZM479.568 75.3715C479.556 75.8329 479.593 76.1571 479.63 76.4813C483.346 77.3678 486.875 78.3416 490.304 79.5896C491.352 78.4177 492.038 76.9589 491.989 75.3876C491.99 71.9707 489.16 69.0767 485.743 69.0757C482.326 69.0747 479.569 71.9546 479.568 75.3715Z" fill="white"/>
</svg>
